<?xml version="1.0" encoding="UTF-8" standalone="no"?>
<!-- Created with Inkscape (http://www.inkscape.org/) -->
<svg
   xmlns:dc="http://purl.org/dc/elements/1.1/"
   xmlns:cc="http://creativecommons.org/ns#"
   xmlns:rdf="http://www.w3.org/1999/02/22-rdf-syntax-ns#"
   xmlns:svg="http://www.w3.org/2000/svg"
   xmlns="http://www.w3.org/2000/svg"
   xmlns:sodipodi="http://sodipodi.sourceforge.net/DTD/sodipodi-0.dtd"
   xmlns:inkscape="http://www.inkscape.org/namespaces/inkscape"
   id="svg9841"
   sodipodi:version="0.32"
   inkscape:version="0.46"
   width="202.78134"
   height="122.51285"
   xml:space="preserve"
   sodipodi:docname="bound_group.svg"
   version="1.0"
   inkscape:output_extension="org.inkscape.output.svg.inkscape"><metadata
     id="metadata9846"><rdf:RDF><cc:Work
         rdf:about=""><dc:format>image/svg+xml</dc:format><dc:type
           rdf:resource="http://purl.org/dc/dcmitype/StillImage" /></cc:Work></rdf:RDF></metadata><defs
     id="defs9844"><inkscape:perspective
       sodipodi:type="inkscape:persp3d"
       inkscape:vp_x="0 : 526.18109 : 1"
       inkscape:vp_y="0 : 1000 : 0"
       inkscape:vp_z="744.09448 : 526.18109 : 1"
       inkscape:persp3d-origin="372.04724 : 350.78739 : 1"
       id="perspective9848" /><clipPath
       clipPathUnits="userSpaceOnUse"
       id="clipPath9870"><path
         d="M 0,0 L 338,0 L 338,198 L 0,198 L 0,0 z"
         id="path9872" /></clipPath><clipPath
       clipPathUnits="userSpaceOnUse"
       id="clipPath9908"><path
         d="M 0,1980 L 0,0 L 3380,0 L 3380,1980 L 0,1980 z M 1676.6,905.801 L 1526,905.801 L 1526,824.801 L 1676.6,824.801 L 1676.6,824.801 L 1550.6,865 L 1676.6,905.801 z"
         clip-rule="evenodd"
         id="path9910" /></clipPath><clipPath
       clipPathUnits="userSpaceOnUse"
       id="clipPath9920"><path
         d="M 0,1980 L 0,0 L 3380,0 L 3380,1980 L 0,1980 z M 1011.2,311.199 L 1035.8,204.398 L 1123.4,224.199 L 1099.4,331 L 1099.4,331 L 1075.4,233.199 L 1011.2,311.199 z"
         clip-rule="evenodd"
         id="path9922" /></clipPath><clipPath
       clipPathUnits="userSpaceOnUse"
       id="clipPath9932"><path
         d="M 0,1980 L 0,0 L 3380,0 L 3380,1980 L 0,1980 z M 2286.2,684.398 L 2286.2,829 L 2223.2,829 L 2223.2,684.398 L 2223.2,684.398 L 2255,801.398 L 2286.2,684.398 z"
         clip-rule="evenodd"
         id="path9934" /></clipPath><clipPath
       clipPathUnits="userSpaceOnUse"
       id="clipPath9944"><path
         d="M 0,1980 L 0,0 L 3380,0 L 3380,1980 L 0,1980 z M 2302.4,1029.4 L 2217.8,929.801 L 2279.6,877.602 L 2364.2,977.199 L 2364.2,977.199 L 2264,920.199 L 2302.4,1029.4 z"
         clip-rule="evenodd"
         id="path9946" /></clipPath><clipPath
       clipPathUnits="userSpaceOnUse"
       id="clipPath9956"><path
         d="M 0,1980 L 0,0 L 3380,0 L 3380,1980 L 0,1980 z M 2382.2,880.602 L 2252,902.199 L 2240,831.398 L 2370.2,809.801 L 2370.2,809.801 L 2270,862.602 L 2382.2,880.602 z"
         clip-rule="evenodd"
         id="path9958" /></clipPath><clipPath
       clipPathUnits="userSpaceOnUse"
       id="clipPath9968"><path
         d="M 0,1980 L 0,0 L 3380,0 L 3380,1980 L 0,1980 z M 437.602,378.398 L 331.398,356.801 L 350.602,260.199 L 457.398,281.199 L 457.398,281.199 L 359.602,311.801 L 437.602,378.398 z"
         clip-rule="evenodd"
         id="path9970" /></clipPath></defs><sodipodi:namedview
     inkscape:window-height="748"
     inkscape:window-width="1022"
     inkscape:pageshadow="2"
     inkscape:pageopacity="0.0"
     guidetolerance="10.0"
     gridtolerance="10.0"
     objecttolerance="10.0"
     borderopacity="1.0"
     bordercolor="#666666"
     pagecolor="#ffffff"
     id="base"
     showgrid="false"
     inkscape:zoom="2.8242424"
     inkscape:cx="107.28541"
     inkscape:cy="53.111588"
     inkscape:window-x="0"
     inkscape:window-y="0"
     inkscape:current-layer="g9850" /><g
     id="g9850"
     inkscape:groupmode="layer"
     inkscape:label="yu-sybilguard-tr"
     transform="matrix(1.25,0,0,-1.25,279.07155,13.74347)"><g
       id="g9860"
       transform="matrix(0.5,0,0,0.5,-223.36466,-87.102804)"><g
         id="g9862"><g
           id="g9864"><g
             id="g9866"><g
               id="g9868"
               clip-path="url(#clipPath9870)"><g
                 id="g9874"
                 transform="scale(0.1,0.1)"><path
                   d="M 2782.39,910 C 2782.39,892.109 2767.89,877.602 2750,877.602 C 2732.11,877.602 2717.6,892.109 2717.6,910 C 2717.6,927.891 2732.11,942.398 2750,942.398 C 2767.89,942.398 2782.39,927.891 2782.39,910 z"
                   style="fill:none;stroke:#000000;stroke-width:4.5;stroke-linecap:butt;stroke-linejoin:miter;stroke-miterlimit:10;stroke-dasharray:none;stroke-opacity:1"
                   id="path9876" /><path
                   d="M 2827.39,325 C 2827.39,307.109 2812.89,292.602 2795,292.602 C 2777.11,292.602 2762.6,307.109 2762.6,325 C 2762.6,342.891 2777.11,357.398 2795,357.398 C 2812.89,357.398 2827.39,342.891 2827.39,325 z"
                   style="fill:none;stroke:#000000;stroke-width:4.5;stroke-linecap:butt;stroke-linejoin:miter;stroke-miterlimit:10;stroke-dasharray:none;stroke-opacity:1"
                   id="path9878" /><path
                   d="M 2804.6,1382.2 C 2804.6,1364.31 2790.09,1349.8 2772.2,1349.8 C 2754.31,1349.8 2739.8,1364.31 2739.8,1382.2 C 2739.8,1400.09 2754.31,1414.6 2772.2,1414.6 C 2790.09,1414.6 2804.6,1400.09 2804.6,1382.2 z"
                   style="fill:none;stroke:#000000;stroke-width:4.5;stroke-linecap:butt;stroke-linejoin:miter;stroke-miterlimit:10;stroke-dasharray:none;stroke-opacity:1"
                   id="path9880" /><path
                   d="M 1535,865 C 1535,847.109 1520.49,832.602 1502.6,832.602 C 1484.71,832.602 1470.2,847.109 1470.2,865 C 1470.2,882.891 1484.71,897.398 1502.6,897.398 C 1520.49,897.398 1535,882.891 1535,865"
                   style="fill:#000000;fill-opacity:1;fill-rule:evenodd;stroke:none"
                   id="path9882" /><path
                   d="M 1535,865 C 1535,847.109 1520.49,832.602 1502.6,832.602 C 1484.71,832.602 1470.2,847.109 1470.2,865 C 1470.2,882.891 1484.71,897.398 1502.6,897.398 C 1520.49,897.398 1535,882.891 1535,865 z"
                   style="fill:none;stroke:#000000;stroke-width:4.5;stroke-linecap:butt;stroke-linejoin:miter;stroke-miterlimit:10;stroke-dasharray:none;stroke-opacity:1"
                   id="path9884" /><path
                   d="M 994.996,1495 C 994.996,1477.11 980.488,1462.6 962.598,1462.6 C 944.707,1462.6 930.199,1477.11 930.199,1495 C 930.199,1512.89 944.707,1527.4 962.598,1527.4 C 980.488,1527.4 994.996,1512.89 994.996,1495"
                   style="fill:#000000;fill-opacity:1;fill-rule:evenodd;stroke:none"
                   id="path9886" /><path
                   d="M 994.996,1495 C 994.996,1477.11 980.488,1462.6 962.598,1462.6 C 944.707,1462.6 930.199,1477.11 930.199,1495 C 930.199,1512.89 944.707,1527.4 962.598,1527.4 C 980.488,1527.4 994.996,1512.89 994.996,1495 z"
                   style="fill:none;stroke:#000000;stroke-width:4.5;stroke-linecap:butt;stroke-linejoin:miter;stroke-miterlimit:10;stroke-dasharray:none;stroke-opacity:1"
                   id="path9888" /><path
                   d="M 2287.39,865 C 2287.39,847.109 2272.89,832.602 2255,832.602 C 2237.11,832.602 2222.6,847.109 2222.6,865 C 2222.6,882.891 2237.11,897.398 2255,897.398 C 2272.89,897.398 2287.39,882.891 2287.39,865 z"
                   style="fill:none;stroke:#000000;stroke-width:4.5;stroke-linecap:butt;stroke-linejoin:miter;stroke-miterlimit:10;stroke-dasharray:none;stroke-opacity:1"
                   id="path9890" /><path
                   d="M 1220,730 C 1220,712.109 1205.49,697.602 1187.6,697.602 C 1169.71,697.602 1155.2,712.109 1155.2,730 C 1155.2,747.891 1169.71,762.398 1187.6,762.398 C 1205.49,762.398 1220,747.891 1220,730"
                   style="fill:#000000;fill-opacity:1;fill-rule:evenodd;stroke:none"
                   id="path9892" /><path
                   d="M 1220,730 C 1220,712.109 1205.49,697.602 1187.6,697.602 C 1169.71,697.602 1155.2,712.109 1155.2,730 C 1155.2,747.891 1169.71,762.398 1187.6,762.398 C 1205.49,762.398 1220,747.891 1220,730 z"
                   style="fill:none;stroke:#000000;stroke-width:4.5;stroke-linecap:butt;stroke-linejoin:miter;stroke-miterlimit:10;stroke-dasharray:none;stroke-opacity:1"
                   id="path9894" /><path
                   d="M 3244.4,887.797 C 3244.4,403.336 2992.69,10.5977 2682.2,10.5977 C 2371.71,10.5977 2120,403.336 2120,887.797 C 2120,1372.26 2371.71,1765 2682.2,1765 C 2992.69,1765 3244.4,1372.26 3244.4,887.797 z"
                   style="fill:none;stroke:#000000;stroke-width:4.5;stroke-linecap:butt;stroke-linejoin:miter;stroke-miterlimit:10;stroke-dasharray:none;stroke-opacity:1"
                   id="path9896" /><path
                   d="M 1714.4,884.797 C 1714.4,398.348 1331.6,3.99609 859.398,3.99609 C 387.195,3.99609 4.39844,398.348 4.39844,884.797 C 4.39844,1371.25 387.195,1765.6 859.398,1765.6 C 1331.6,1765.6 1714.4,1371.25 1714.4,884.797 z"
                   style="fill:none;stroke:#000000;stroke-width:4.5;stroke-linecap:butt;stroke-linejoin:miter;stroke-miterlimit:10;stroke-dasharray:none;stroke-opacity:1"
                   id="path9898" /><path
                   d="M 1027.39,550 C 1027.39,532.109 1012.89,517.602 994.996,517.602 C 977.105,517.602 962.598,532.109 962.598,550 C 962.598,567.891 977.105,582.398 994.996,582.398 C 1012.89,582.398 1027.39,567.891 1027.39,550"
                   style="fill:#000000;fill-opacity:1;fill-rule:evenodd;stroke:none"
                   id="path9900" /><path
                   d="M 1027.39,550 C 1027.39,532.109 1012.89,517.602 994.996,517.602 C 977.105,517.602 962.598,532.109 962.598,550 C 962.598,567.891 977.105,582.398 994.996,582.398 C 1012.89,582.398 1027.39,567.891 1027.39,550 z"
                   style="fill:none;stroke:#000000;stroke-width:4.5;stroke-linecap:butt;stroke-linejoin:miter;stroke-miterlimit:10;stroke-dasharray:none;stroke-opacity:1"
                   id="path9902" /><g
                   id="g9904"><g
                     id="g9906"
                     clip-path="url(#clipPath9908)"><path
                       d="M 1535,865 L 2225,865"
                       style="fill:none;stroke:#ff0000;stroke-width:18;stroke-linecap:butt;stroke-linejoin:miter;stroke-miterlimit:10;stroke-dasharray:none;stroke-opacity:1"
                       id="path9912" /></g></g><path
                   d="M 1676.6,905.801 L 1550.6,865 L 1676.6,824.801"
                   style="fill:none;stroke:#ff0000;stroke-width:4.5;stroke-linecap:butt;stroke-linejoin:miter;stroke-miterlimit:10;stroke-dasharray:none;stroke-opacity:1"
                   id="path9914" /><g
                   id="g9916"><g
                     id="g9918"
                     clip-path="url(#clipPath9920)"><path
                       d="M 942.801,1483 L 941.602,1481.2 L 938,1478.2 L 932.602,1471.6 L 924.199,1462.6 L 913.398,1450 L 900.801,1435.6 L 886.398,1418.2 L 870.801,1399.6 L 855.801,1380.4 L 840.801,1361.2 L 826.398,1342.6 L 813.801,1324.6 L 802.398,1307.2 L 792.801,1291 L 784.398,1275.4 L 777.199,1260.4 L 771.801,1246 L 767.602,1232.2 L 765.199,1218.4 L 763.398,1204.6 L 762.801,1190.2 L 763.398,1178.2 L 764,1166.2 L 765.801,1153.6 L 768.199,1140.4 L 771.199,1127.2 L 775.398,1113.4 L 779.602,1099 L 784.398,1084 L 789.801,1068.4 L 796.398,1052.8 L 803,1036.6 L 809.602,1019.8 L 817.398,1003 L 824.602,986.199 L 833,968.801 L 840.801,951.398 L 849.199,934 L 857.602,916.602 L 866,899.199 L 874.398,881.801 L 882.199,864.398 L 890,847 L 897.801,829.602 L 905.602,812.801 L 912.801,795.398 L 920.602,778 L 926.602,763 L 932.602,747.398 L 938.602,731.199 L 944,715 L 950,698.199 L 956,680.199 L 962,662.199 L 968,642.398 L 974,622 L 980.602,599.801 L 987.199,577 L 993.801,552.398 L 1000.4,527.199 L 1007.6,500.199 L 1014.8,472.602 L 1022.6,444.398 L 1029.8,416.199 L 1037,387.398 L 1044.2,359.801 L 1050.8,333.398 L 1056.8,309.398 L 1062.2,287.801 L 1066.4,268.602 L 1070.6,253.602 L 1073.6,241.602 L 1077.8,223"
                       style="fill:none;stroke:#000000;stroke-width:4.5;stroke-linecap:butt;stroke-linejoin:bevel;stroke-miterlimit:10;stroke-dasharray:none;stroke-opacity:1"
                       id="path9924" /></g></g><path
                   d="M 1011.2,311.199 L 1075.4,233.199 L 1099.4,331"
                   style="fill:none;stroke:#000000;stroke-width:4.5;stroke-linecap:butt;stroke-linejoin:miter;stroke-miterlimit:10;stroke-dasharray:none;stroke-opacity:1"
                   id="path9926" /><g
                   id="g9928"><g
                     id="g9930"
                     clip-path="url(#clipPath9932)"><path
                       d="M 2795,325 L 2794.4,325 L 2792.6,324.398 L 2789.6,323.801 L 2785.4,322 L 2778.8,320.801 L 2770.4,318.398 L 2760.2,316 L 2748.2,313 L 2734.4,310 L 2719.4,307 L 2703.2,304 L 2686.4,301 L 2668.4,298 L 2649.8,296.199 L 2631.2,294.398 L 2612,293.199 L 2592.8,293.199 L 2573.6,293.801 L 2553.8,295.602 L 2533.4,298.602 L 2513.6,303.398 L 2493.2,309.398 L 2472.2,317.199 L 2451.2,326.801 L 2430.2,338.801 L 2409.8,353.199 L 2390,370 L 2370.2,389.801 L 2352.2,412 L 2336.6,434.199 L 2322.8,457.602 L 2310.8,481 L 2300.6,504.398 L 2292.2,527.801 L 2285,551.801 L 2279,575.199 L 2273.6,599.199 L 2269.4,622.602 L 2266.4,646.602 L 2263.4,669.398 L 2261,692.199 L 2259.2,713.801 L 2258,734.199 L 2256.8,752.801 L 2256.2,769.602 L 2255.6,784 L 2255.6,796 L 2255,805.602 L 2255,820"
                       style="fill:none;stroke:#000000;stroke-width:4.5;stroke-linecap:butt;stroke-linejoin:bevel;stroke-miterlimit:10;stroke-dasharray:none;stroke-opacity:1"
                       id="path9936" /></g></g><path
                   d="M 2286.2,684.398 L 2255,801.398 L 2223.2,684.398"
                   style="fill:none;stroke:#000000;stroke-width:4.5;stroke-linecap:butt;stroke-linejoin:miter;stroke-miterlimit:10;stroke-dasharray:none;stroke-opacity:1"
                   id="path9938" /><g
                   id="g9940"><g
                     id="g9942"
                     clip-path="url(#clipPath9944)"><path
                       d="M 2750,1360 L 2748.8,1360 L 2745.8,1360.6 L 2741,1361.8 L 2733.2,1363 L 2723,1364.8 L 2710.4,1366.6 L 2695.4,1369 L 2678.6,1372 L 2660.6,1374.4 L 2642,1376.8 L 2622.2,1379.2 L 2602.4,1381 L 2582.6,1382.2 L 2562.8,1383.4 L 2543,1383.4 L 2523.8,1382.2 L 2504.6,1380.4 L 2486,1377.4 L 2467.4,1373.2 L 2450.6,1367.2 L 2435,1360 L 2418.2,1348 L 2406.8,1335.4 L 2400.8,1324 L 2399.6,1314.4 L 2402.6,1306.6 L 2408,1301.2 L 2415.2,1296.4 L 2423.6,1292.2 L 2432,1288 L 2440.4,1282.6 L 2447,1274.8 L 2451.2,1264 L 2452.4,1249.6 L 2450.6,1230.4 L 2444.6,1207 L 2435,1180 L 2426,1159.6 L 2416.4,1138.6 L 2406.2,1118.8 L 2395.4,1099.6 L 2384.6,1081.6 L 2373.2,1064.2 L 2361.8,1047.4 L 2351,1031.2 L 2339.6,1015.6 L 2328.2,1000.6 L 2316.8,986.199 L 2306,971.801 L 2295.8,959.199 L 2286.2,947.199 L 2277.8,937 L 2270.6,928 L 2264.6,921.398 L 2255,910"
                       style="fill:none;stroke:#000000;stroke-width:4.5;stroke-linecap:butt;stroke-linejoin:bevel;stroke-miterlimit:10;stroke-dasharray:none;stroke-opacity:1"
                       id="path9948" /></g></g><path
                   d="M 2302.4,1029.4 L 2264,920.199 L 2364.2,977.199"
                   style="fill:none;stroke:#000000;stroke-width:4.5;stroke-linecap:butt;stroke-linejoin:miter;stroke-miterlimit:10;stroke-dasharray:none;stroke-opacity:1"
                   id="path9950" /><g
                   id="g9952"><g
                     id="g9954"
                     clip-path="url(#clipPath9956)"><path
                       d="M 2750,865 L 2750,841 L 2749.4,827.801 L 2748.8,811.602 L 2748.2,793.602 L 2747,775 L 2745.8,755.801 L 2744,737.199 L 2741.6,718.602 L 2738,701.199 L 2733.8,685 L 2729,670.602 L 2722.4,657.398 L 2714.6,647.199 L 2705,640 L 2693.6,637 L 2682.8,638.199 L 2673.8,642.398 L 2667.2,649 L 2663,656.199 L 2661.2,664 L 2660.6,672.398 L 2660,681.398 L 2659.4,690.398 L 2657.6,700 L 2653.4,710.199 L 2646.2,721.602 L 2634.8,733.602 L 2618,746.801 L 2596.4,760.602 L 2570,775 L 2549,785.199 L 2527.4,794.199 L 2505.8,802.602 L 2484.8,810.398 L 2464.4,817 L 2444.6,823 L 2424.8,829 L 2405.6,833.801 L 2387,838.602 L 2368.4,842.801 L 2350.4,847 L 2333.6,850.602 L 2317.4,853.602 L 2302.4,856.602 L 2289.2,859 L 2278.4,860.801 L 2269.4,862.602 L 2255,865"
                       style="fill:none;stroke:#000000;stroke-width:4.5;stroke-linecap:butt;stroke-linejoin:bevel;stroke-miterlimit:10;stroke-dasharray:none;stroke-opacity:1"
                       id="path9960" /></g></g><path
                   d="M 2382.2,880.602 L 2270,862.602 L 2370.2,809.801"
                   style="fill:none;stroke:#000000;stroke-width:4.5;stroke-linecap:butt;stroke-linejoin:miter;stroke-miterlimit:10;stroke-dasharray:none;stroke-opacity:1"
                   id="path9962" /><g
                   id="g9964"><g
                     id="g9966"
                     clip-path="url(#clipPath9968)"><path
                       d="M 1490,865 L 1488.8,866.199 L 1487,868.602 L 1482.8,873.398 L 1476.8,880 L 1468.4,888.398 L 1458.8,899.199 L 1447.4,911.199 L 1434.8,923.801 L 1421,937 L 1407.2,949.602 L 1392.2,962.199 L 1377.2,973.602 L 1362.2,983.801 L 1346.6,992.199 L 1331,999.398 L 1314.8,1003.6 L 1298,1006 L 1281.2,1004.8 L 1265,1000 L 1250,991.602 L 1237.4,980.801 L 1227.2,968.199 L 1220,955.602 L 1215.2,943.602 L 1212.8,932.199 L 1212.2,921.398 L 1212.8,911.199 L 1214,901 L 1216.4,891.398 L 1218.2,881.199 L 1220,870.398 L 1220.6,859 L 1220.6,845.801 L 1218.2,831.398 L 1214,814.602 L 1208,795.398 L 1199,775 L 1187.6,752.801 L 1175,730 L 1161.2,708.398 L 1148,688.602 L 1136,671.801 L 1126.4,658.602 L 1118,648.398 L 1112,641.199 L 1107.8,635.801 L 1104.2,632.199 L 1101.8,630.398 L 1100,628.602 L 1097.6,627.398 L 1095.2,625.602 L 1091,622.602 L 1085.6,618.398 L 1077.2,612.398 L 1067,604 L 1053.2,593.199 L 1036.4,580.602 L 1016.6,565.602 L 995,550 L 974.602,536.199 L 954.801,523 L 936.801,511.602 L 921.801,502.602 L 909.199,494.801 L 899,488.801 L 891.199,484.602 L 885.801,481.602 L 881.602,479.199 L 878.602,477.398 L 876.199,476.199 L 873.801,475 L 870.199,473.801 L 865.398,471.398 L 858.801,469 L 849.801,464.801 L 837.801,460 L 822.199,453.398 L 803,445.602 L 779.602,436 L 753.801,425.801 L 725,415 L 698,405.398 L 671,395.801 L 645.199,387.398 L 620,379 L 596,371.801 L 573.801,365.199 L 551.602,358.602 L 530.602,353.199 L 510.199,347.801 L 491,342.398 L 471.801,337.602 L 453.801,333.398 L 436.398,329.199 L 419.602,325.602 L 404.602,322 L 391.398,319 L 379.398,316.602 L 369.801,314.199 L 362,312.398 L 350,310"
                       style="fill:none;stroke:#000000;stroke-width:4.5;stroke-linecap:butt;stroke-linejoin:bevel;stroke-miterlimit:10;stroke-dasharray:none;stroke-opacity:1"
                       id="path9972" /></g></g><path
                   d="M 437.602,378.398 L 359.602,311.801 L 457.398,281.199"
                   style="fill:none;stroke:#000000;stroke-width:4.5;stroke-linecap:butt;stroke-linejoin:miter;stroke-miterlimit:10;stroke-dasharray:none;stroke-opacity:1"
                   id="path9974" /><g
                   id="g9976"
                   transform="scale(10,10)"><text
                     transform="matrix(1,0,0,-1,95,131.5)"
                     id="text9978"><tspan
                       style="font-size:18px;font-variant:normal;writing-mode:lr-tb;fill:#000000;fill-opacity:1;fill-rule:nonzero;stroke:none;font-family:Helvetica;-inkscape-font-specification:Helvetica-Narrow"
                       x="0 9.8459997 18.054001 22.968 26.243999 30.348 33.624001 41.832001"
                       y="0"
                       sodipodi:role="line"
                       id="tspan9980">Verifier</tspan></text>
<text
                     transform="matrix(1,0,0,-1,149,55)"
                     id="text9982"><tspan
                       style="font-size:18px;font-style:oblique;font-variant:normal;writing-mode:lr-tb;fill:#000000;fill-opacity:1;fill-rule:nonzero;stroke:none;font-family:Helvetica-Narrow;-inkscape-font-specification:Helvetica-Narrow-Oblique"
                       x="0 8.2080002"
                       y="0"
                       sodipodi:role="line"
                       id="tspan9984">e1</tspan></text>
<text
                     transform="matrix(1,0,0,-1,221,181)"
                     id="text9986"><tspan
                       style="font-size:19.99979973px;font-variant:normal;font-weight:normal;writing-mode:lr-tb;fill:#000000;fill-opacity:1;fill-rule:nonzero;stroke:none;font-family:Helvetica;-inkscape-font-specification:Helvetica"
                       x="0 13.339867 23.339767 34.459656 38.899612 43.339565 48.899509 60.019402 71.13929 82.259178 93.379066 103.37897"
                       y="0"
                       sodipodi:role="line"
                       id="tspan9988">Sybil nodes </tspan></text>
<text
                     transform="matrix(1,0,0,-1,18.5,59.5)"
                     id="text9990"><tspan
                       style="font-size:18px;font-variant:normal;writing-mode:lr-tb;fill:#000000;fill-opacity:1;fill-rule:nonzero;stroke:none;font-family:Helvetica;-inkscape-font-specification:Helvetica-Narrow"
                       x="0 3.276 11.484 15.588 23.796 28.709999 36.09 44.298 51.678001 55.782001 59.057999 67.265999"
                       y="0"
                       sodipodi:role="line"
                       id="tspan9992">intersection</tspan><tspan
                       style="font-size:18px;font-variant:normal;writing-mode:lr-tb;fill:#000000;fill-opacity:1;fill-rule:nonzero;stroke:none;font-family:Helvetica;-inkscape-font-specification:Helvetica-Narrow"
                       x="0 8.2080002 16.416 24.624001"
                       y="13.5"
                       sodipodi:role="line"
                       id="tspan9994">node</tspan><tspan
                       style="font-size:18px;font-variant:normal;writing-mode:lr-tb;fill:#000000;fill-opacity:1;fill-rule:nonzero;stroke:none;font-family:Helvetica;-inkscape-font-specification:Helvetica-Narrow"
                       x="94.5 102.708 110.916 119.124"
                       y="4.5"
                       sodipodi:role="line"
                       id="tspan9996">edge</tspan></text>
<text
                     transform="matrix(1,0,0,-1,32,181)"
                     id="text9998"><tspan
                       style="font-size:19.99979973px;font-variant:normal;font-weight:normal;writing-mode:lr-tb;fill:#000000;fill-opacity:1;fill-rule:nonzero;stroke:none;font-family:Helvetica;-inkscape-font-specification:Helvetica"
                       x="0 14.439856 25.559744 36.679634 47.799522 57.799423 63.359367 68.919312 80.0392 91.159088 102.27898 113.39886"
                       y="0"
                       sodipodi:role="line"
                       id="tspan10000">Honest nodes</tspan></text>
</g></g></g></g></g></g></g></g></svg>