<?xml version="1.0" encoding="UTF-8" standalone="no"?>
<!-- Created with Inkscape (http://www.inkscape.org/) -->
<svg
   xmlns:dc="http://purl.org/dc/elements/1.1/"
   xmlns:cc="http://creativecommons.org/ns#"
   xmlns:rdf="http://www.w3.org/1999/02/22-rdf-syntax-ns#"
   xmlns:svg="http://www.w3.org/2000/svg"
   xmlns="http://www.w3.org/2000/svg"
   xmlns:sodipodi="http://sodipodi.sourceforge.net/DTD/sodipodi-0.dtd"
   xmlns:inkscape="http://www.inkscape.org/namespaces/inkscape"
   id="svg11622"
   sodipodi:version="0.32"
   inkscape:version="0.46"
   width="183.65649"
   height="12.27223"
   xml:space="preserve"
   sodipodi:docname="bound_nodes.svg"
   version="1.0"
   inkscape:output_extension="org.inkscape.output.svg.inkscape"><metadata
     id="metadata11627"><rdf:RDF><cc:Work
         rdf:about=""><dc:format>image/svg+xml</dc:format><dc:type
           rdf:resource="http://purl.org/dc/dcmitype/StillImage" /></cc:Work></rdf:RDF></metadata><defs
     id="defs11625"><inkscape:perspective
       sodipodi:type="inkscape:persp3d"
       inkscape:vp_x="0 : 526.18109 : 1"
       inkscape:vp_y="0 : 1000 : 0"
       inkscape:vp_z="744.09448 : 526.18109 : 1"
       inkscape:persp3d-origin="372.04724 : 350.78739 : 1"
       id="perspective11629" /><clipPath
       clipPathUnits="userSpaceOnUse"
       id="clipPath11849"><path
         d="M 0,0 L 295,0 L 295,21 L 0,21 L 0,0 z"
         id="path11851" /></clipPath><clipPath
       clipPathUnits="userSpaceOnUse"
       id="clipPath11879"><path
         d="M 0,210 L 0,0 L 2950,0 L 2950,210 L 0,210 z M 851,193.801 L 851,112.801 L 961.398,112.801 L 871.398,153 L 961.398,193.801 L 851,193.801 z"
         clip-rule="evenodd"
         id="path11881" /></clipPath><clipPath
       clipPathUnits="userSpaceOnUse"
       id="clipPath11891"><path
         d="M 0,210 L 0,0 L 2950,0 L 2950,210 L 0,210 z M 131,103.801 L 131,22.8008 L 241.398,22.8008 L 151.398,63 L 241.398,103.801 L 131,103.801 z"
         clip-rule="evenodd"
         id="path11893" /></clipPath></defs><sodipodi:namedview
     inkscape:window-height="748"
     inkscape:window-width="1022"
     inkscape:pageshadow="2"
     inkscape:pageopacity="0.0"
     guidetolerance="10.0"
     gridtolerance="10.0"
     objecttolerance="10.0"
     borderopacity="1.0"
     bordercolor="#666666"
     pagecolor="#ffffff"
     id="base"
     showgrid="false"
     inkscape:zoom="1.638624"
     inkscape:cx="138.73429"
     inkscape:cy="-12.612208"
     inkscape:window-x="0"
     inkscape:window-y="0"
     inkscape:current-layer="g11631" /><g
     id="g11631"
     inkscape:groupmode="layer"
     inkscape:label="yu-sybilguard-tr"
     transform="matrix(1.25,0,0,-1.25,-407.41114,-26.224751)"><g
       transform="matrix(0.5,0,0,0.5,325.79161,-30.894851)"
       id="g11839"><g
         id="g11841"><g
           id="g11843"><g
             id="g11845"><g
               clip-path="url(#clipPath11849)"
               id="g11847"><g
                 transform="scale(0.1,0.1)"
                 id="g11853"><path
                   id="path11855"
                   style="fill:#000000;fill-opacity:1;fill-rule:evenodd;stroke:none"
                   d="M 896.598,85.7969 C 896.598,40.7305 860.062,4.19531 814.996,4.19531 C 769.93,4.19531 733.395,40.7305 733.395,85.7969 C 733.395,130.863 769.93,167.398 814.996,167.398 C 860.062,167.398 896.598,130.863 896.598,85.7969" /><path
                   id="path11857"
                   style="fill:none;stroke:#000000;stroke-width:4.5;stroke-linecap:butt;stroke-linejoin:miter;stroke-miterlimit:10;stroke-dasharray:none;stroke-opacity:1"
                   d="M 896.598,85.7969 C 896.598,40.7305 860.062,4.19531 814.996,4.19531 C 769.93,4.19531 733.395,40.7305 733.395,85.7969 C 733.395,130.863 769.93,167.398 814.996,167.398 C 860.062,167.398 896.598,130.863 896.598,85.7969 z" /><path
                   id="path11859"
                   style="fill:#000000;fill-opacity:1;fill-rule:evenodd;stroke:none"
                   d="M 1589,99.5977 C 1589,54.5312 1552.46,17.9961 1507.4,17.9961 C 1462.33,17.9961 1425.8,54.5312 1425.8,99.5977 C 1425.8,144.664 1462.33,181.199 1507.4,181.199 C 1552.46,181.199 1589,144.664 1589,99.5977" /><path
                   id="path11861"
                   style="fill:none;stroke:#000000;stroke-width:4.5;stroke-linecap:butt;stroke-linejoin:miter;stroke-miterlimit:10;stroke-dasharray:none;stroke-opacity:1"
                   d="M 1589,99.5977 C 1589,54.5312 1552.46,17.9961 1507.4,17.9961 C 1462.33,17.9961 1425.8,54.5312 1425.8,99.5977 C 1425.8,144.664 1462.33,181.199 1507.4,181.199 C 1552.46,181.199 1589,144.664 1589,99.5977 z" /><path
                   id="path11863"
                   style="fill:#000000;fill-opacity:1;fill-rule:evenodd;stroke:none"
                   d="M 2264,99.5977 C 2264,54.5312 2227.46,17.9961 2182.4,17.9961 C 2137.33,17.9961 2100.8,54.5312 2100.8,99.5977 C 2100.8,144.664 2137.33,181.199 2182.4,181.199 C 2227.46,181.199 2264,144.664 2264,99.5977" /><path
                   id="path11865"
                   style="fill:none;stroke:#000000;stroke-width:4.5;stroke-linecap:butt;stroke-linejoin:miter;stroke-miterlimit:10;stroke-dasharray:none;stroke-opacity:1"
                   d="M 2264,99.5977 C 2264,54.5312 2227.46,17.9961 2182.4,17.9961 C 2137.33,17.9961 2100.8,54.5312 2100.8,99.5977 C 2100.8,144.664 2137.33,181.199 2182.4,181.199 C 2227.46,181.199 2264,144.664 2264,99.5977 z" /><path
                   id="path11867"
                   style="fill:#000000;fill-opacity:1;fill-rule:evenodd;stroke:none"
                   d="M 2939,99.5977 C 2939,54.5312 2902.46,17.9961 2857.4,17.9961 C 2812.33,17.9961 2775.8,54.5312 2775.8,99.5977 C 2775.8,144.664 2812.33,181.199 2857.4,181.199 C 2902.46,181.199 2939,144.664 2939,99.5977" /><path
                   id="path11869"
                   style="fill:none;stroke:#000000;stroke-width:4.5;stroke-linecap:butt;stroke-linejoin:miter;stroke-miterlimit:10;stroke-dasharray:none;stroke-opacity:1"
                   d="M 2939,99.5977 C 2939,54.5312 2902.46,17.9961 2857.4,17.9961 C 2812.33,17.9961 2775.8,54.5312 2775.8,99.5977 C 2775.8,144.664 2812.33,181.199 2857.4,181.199 C 2902.46,181.199 2939,144.664 2939,99.5977 z" /><path
                   id="path11871"
                   style="fill:#000000;fill-opacity:1;fill-rule:evenodd;stroke:none"
                   d="M 168.199,108 C 168.199,62.9336 131.664,26.3984 86.5977,26.3984 C 41.5312,26.3984 4.99609,62.9336 4.99609,108 C 4.99609,153.066 41.5312,189.602 86.5977,189.602 C 131.664,189.602 168.199,153.066 168.199,108" /><path
                   id="path11873"
                   style="fill:none;stroke:#000000;stroke-width:4.5;stroke-linecap:butt;stroke-linejoin:miter;stroke-miterlimit:10;stroke-dasharray:none;stroke-opacity:1"
                   d="M 168.199,108 C 168.199,62.9336 131.664,26.3984 86.5977,26.3984 C 41.5312,26.3984 4.99609,62.9336 4.99609,108 C 4.99609,153.066 41.5312,189.602 86.5977,189.602 C 131.664,189.602 168.199,153.066 168.199,108 z" /><g
                   id="g11875"><g
                     clip-path="url(#clipPath11879)"
                     id="g11877"><path
                       id="path11883"
                       style="fill:none;stroke:#000000;stroke-width:9;stroke-linecap:butt;stroke-linejoin:miter;stroke-miterlimit:10;stroke-dasharray:none;stroke-opacity:1"
                       d="M 2840,153 L 860,153" /></g></g><path
                   id="path11885"
                   style="fill:none;stroke:#000000;stroke-width:9;stroke-linecap:butt;stroke-linejoin:miter;stroke-miterlimit:10;stroke-dasharray:none;stroke-opacity:1"
                   d="M 961.398,193.801 L 871.398,153 L 961.398,112.801" /><g
                   id="g11887"><g
                     clip-path="url(#clipPath11891)"
                     id="g11889"><path
                       id="path11895"
                       style="fill:none;stroke:#000000;stroke-width:9;stroke-linecap:butt;stroke-linejoin:miter;stroke-miterlimit:10;stroke-dasharray:none;stroke-opacity:1"
                       d="M 2120,63 L 140,63" /></g></g><path
                   id="path11897"
                   style="fill:none;stroke:#000000;stroke-width:9;stroke-linecap:butt;stroke-linejoin:miter;stroke-miterlimit:10;stroke-dasharray:none;stroke-opacity:1"
                   d="M 241.398,103.801 L 151.398,63 L 241.398,22.8008" /></g></g></g></g></g></g></g></svg>