<?xml version="1.0" encoding="UTF-8" standalone="no"?>
<!-- Created with Inkscape (http://www.inkscape.org/) -->
<svg
   xmlns:dc="http://purl.org/dc/elements/1.1/"
   xmlns:cc="http://creativecommons.org/ns#"
   xmlns:rdf="http://www.w3.org/1999/02/22-rdf-syntax-ns#"
   xmlns:svg="http://www.w3.org/2000/svg"
   xmlns="http://www.w3.org/2000/svg"
   xmlns:sodipodi="http://sodipodi.sourceforge.net/DTD/sodipodi-0.dtd"
   xmlns:inkscape="http://www.inkscape.org/namespaces/inkscape"
   id="svg24302"
   sodipodi:version="0.32"
   inkscape:version="0.46"
   width="240.92149"
   height="113.36904"
   xml:space="preserve"
   sodipodi:docname="result_honest_node.svg"
   version="1.0"
   inkscape:output_extension="org.inkscape.output.svg.inkscape"><metadata
     id="metadata24307"><rdf:RDF><cc:Work
         rdf:about=""><dc:format>image/svg+xml</dc:format><dc:type
           rdf:resource="http://purl.org/dc/dcmitype/StillImage" /></cc:Work></rdf:RDF></metadata><defs
     id="defs24305"><inkscape:perspective
       sodipodi:type="inkscape:persp3d"
       inkscape:vp_x="0 : 526.18109 : 1"
       inkscape:vp_y="0 : 1000 : 0"
       inkscape:vp_z="744.09448 : 526.18109 : 1"
       inkscape:persp3d-origin="372.04724 : 350.78739 : 1"
       id="perspective24309" /><clipPath
       clipPathUnits="userSpaceOnUse"
       id="clipPath24785"><path
         d="M 0,0 L 251,0 L 251,126 L 0,126 L 0,0 z"
         id="path24787" /></clipPath></defs><sodipodi:namedview
     inkscape:window-height="748"
     inkscape:window-width="1022"
     inkscape:pageshadow="2"
     inkscape:pageopacity="0.0"
     guidetolerance="10.0"
     gridtolerance="10.0"
     objecttolerance="10.0"
     borderopacity="1.0"
     bordercolor="#666666"
     pagecolor="#ffffff"
     id="base"
     showgrid="false"
     inkscape:zoom="0.47070707"
     inkscape:cx="382.5"
     inkscape:cy="209.96478"
     inkscape:window-x="0"
     inkscape:window-y="0"
     inkscape:current-layer="g24311" /><g
     id="g24311"
     inkscape:groupmode="layer"
     inkscape:label="yu-sybilguard-tr"
     transform="matrix(1.25,0,0,-1.25,6.4332669,12.862482)"><g
       transform="matrix(0.8,0,0,0.8,-10.180676,-80.405249)"
       id="g24775"><g
         id="g24777"><g
           id="g24779"><g
             id="g24781"><g
               clip-path="url(#clipPath24785)"
               id="g24783"><g
                 transform="scale(0.1,0.1)"
                 id="g24789"><path
                   id="path24791"
                   style="fill:none;stroke:#000000;stroke-width:5;stroke-linecap:butt;stroke-linejoin:miter;stroke-miterlimit:10;stroke-dasharray:none;stroke-opacity:1"
                   d="M 561,330 L 592.5,330 M 2333,330 L 2301.5,330" /><g
                   transform="scale(10,10)"
                   id="g24793"><text
                     id="text24795"
                     transform="matrix(1,0,0,-1,43.3846,29.35)"><tspan
                       id="tspan24797"
                       y="0"
                       x="0"
                       style="font-size:11px;font-variant:normal;writing-mode:lr-tb;fill:#000000;fill-opacity:1;fill-rule:nonzero;stroke:none;font-family:NimbusSanL;-inkscape-font-specification:NimbusSanL-Regu">0</tspan></text>
</g><path
                   id="path24799"
                   style="fill:none;stroke:#000000;stroke-width:5;stroke-linecap:butt;stroke-linejoin:miter;stroke-miterlimit:10;stroke-dasharray:none;stroke-opacity:1"
                   d="M 561,330 L 592.5,330 M 2333,330 L 2301.5,330" /><path
                   id="path24801"
                   style="fill:none;stroke:#000000;stroke-width:5;stroke-linecap:butt;stroke-linejoin:miter;stroke-miterlimit:10;stroke-dasharray:none;stroke-opacity:1"
                   d="M 561,482 L 592.5,482 M 2333,482 L 2301.5,482" /><g
                   transform="scale(10,10)"
                   id="g24803"><text
                     id="text24805"
                     transform="matrix(1,0,0,-1,34.2111,44.55)"><tspan
                       id="tspan24807"
                       sodipodi:role="line"
                       y="0"
                       x="0 6.1160002 9.1739998"
                       style="font-size:11px;font-variant:normal;writing-mode:lr-tb;fill:#000000;fill-opacity:1;fill-rule:nonzero;stroke:none;font-family:NimbusSanL;-inkscape-font-specification:NimbusSanL-Regu">0.2</tspan></text>
</g><path
                   id="path24809"
                   style="fill:none;stroke:#000000;stroke-width:5;stroke-linecap:butt;stroke-linejoin:miter;stroke-miterlimit:10;stroke-dasharray:none;stroke-opacity:1"
                   d="M 561,482 L 592.5,482 M 2333,482 L 2301.5,482" /><path
                   id="path24811"
                   style="fill:none;stroke:#000000;stroke-width:5;stroke-linecap:butt;stroke-linejoin:miter;stroke-miterlimit:10;stroke-dasharray:none;stroke-opacity:1"
                   d="M 561,634 L 592.5,634 M 2333,634 L 2301.5,634" /><g
                   transform="scale(10,10)"
                   id="g24813"><text
                     id="text24815"
                     transform="matrix(1,0,0,-1,34.2111,59.75)"><tspan
                       id="tspan24817"
                       sodipodi:role="line"
                       y="0"
                       x="0 6.1160002 9.1739998"
                       style="font-size:11px;font-variant:normal;writing-mode:lr-tb;fill:#000000;fill-opacity:1;fill-rule:nonzero;stroke:none;font-family:NimbusSanL;-inkscape-font-specification:NimbusSanL-Regu">0.4</tspan></text>
</g><path
                   id="path24819"
                   style="fill:none;stroke:#000000;stroke-width:5;stroke-linecap:butt;stroke-linejoin:miter;stroke-miterlimit:10;stroke-dasharray:none;stroke-opacity:1"
                   d="M 561,634 L 592.5,634 M 2333,634 L 2301.5,634" /><path
                   id="path24821"
                   style="fill:none;stroke:#000000;stroke-width:5;stroke-linecap:butt;stroke-linejoin:miter;stroke-miterlimit:10;stroke-dasharray:none;stroke-opacity:1"
                   d="M 561,786 L 592.5,786 M 2333,786 L 2301.5,786" /><g
                   transform="scale(10,10)"
                   id="g24823"><text
                     id="text24825"
                     transform="matrix(1,0,0,-1,34.2111,74.95)"><tspan
                       id="tspan24827"
                       sodipodi:role="line"
                       y="0"
                       x="0 6.1160002 9.1739998"
                       style="font-size:11px;font-variant:normal;writing-mode:lr-tb;fill:#000000;fill-opacity:1;fill-rule:nonzero;stroke:none;font-family:NimbusSanL;-inkscape-font-specification:NimbusSanL-Regu">0.6</tspan></text>
</g><path
                   id="path24829"
                   style="fill:none;stroke:#000000;stroke-width:5;stroke-linecap:butt;stroke-linejoin:miter;stroke-miterlimit:10;stroke-dasharray:none;stroke-opacity:1"
                   d="M 561,786 L 592.5,786 M 2333,786 L 2301.5,786" /><path
                   id="path24831"
                   style="fill:none;stroke:#000000;stroke-width:5;stroke-linecap:butt;stroke-linejoin:miter;stroke-miterlimit:10;stroke-dasharray:none;stroke-opacity:1"
                   d="M 561,938 L 592.5,938 M 2333,938 L 2301.5,938" /><g
                   transform="scale(10,10)"
                   id="g24833"><text
                     id="text24835"
                     transform="matrix(1,0,0,-1,34.2111,90.15)"><tspan
                       id="tspan24837"
                       sodipodi:role="line"
                       y="0"
                       x="0 6.1160002 9.1739998"
                       style="font-size:11px;font-variant:normal;writing-mode:lr-tb;fill:#000000;fill-opacity:1;fill-rule:nonzero;stroke:none;font-family:NimbusSanL;-inkscape-font-specification:NimbusSanL-Regu">0.8</tspan></text>
</g><path
                   id="path24839"
                   style="fill:none;stroke:#000000;stroke-width:5;stroke-linecap:butt;stroke-linejoin:miter;stroke-miterlimit:10;stroke-dasharray:none;stroke-opacity:1"
                   d="M 561,938 L 592.5,938 M 2333,938 L 2301.5,938" /><path
                   id="path24841"
                   style="fill:none;stroke:#000000;stroke-width:5;stroke-linecap:butt;stroke-linejoin:miter;stroke-miterlimit:10;stroke-dasharray:none;stroke-opacity:1"
                   d="M 561,1090 L 592.5,1090 M 2333,1090 L 2301.5,1090" /><g
                   transform="scale(10,10)"
                   id="g24843"><text
                     id="text24845"
                     transform="matrix(1,0,0,-1,43.3846,105.35)"><tspan
                       id="tspan24847"
                       y="0"
                       x="0"
                       style="font-size:11px;font-variant:normal;writing-mode:lr-tb;fill:#000000;fill-opacity:1;fill-rule:nonzero;stroke:none;font-family:NimbusSanL;-inkscape-font-specification:NimbusSanL-Regu">1</tspan></text>
</g><path
                   id="path24849"
                   style="fill:none;stroke:#000000;stroke-width:5;stroke-linecap:butt;stroke-linejoin:miter;stroke-miterlimit:10;stroke-dasharray:none;stroke-opacity:1"
                   d="M 561,1090 L 592.5,1090 M 2333,1090 L 2301.5,1090" /><path
                   id="path24851"
                   style="fill:none;stroke:#000000;stroke-width:5;stroke-linecap:butt;stroke-linejoin:miter;stroke-miterlimit:10;stroke-dasharray:none;stroke-opacity:1"
                   d="M 561,330 L 561,361.5 M 561,1128 L 561,1096.5" /><g
                   transform="scale(10,10)"
                   id="g24853"><text
                     id="text24855"
                     transform="matrix(1,0,0,-1,54.5713,18.35)"><tspan
                       id="tspan24857"
                       y="0"
                       x="0"
                       style="font-size:11px;font-variant:normal;writing-mode:lr-tb;fill:#000000;fill-opacity:1;fill-rule:nonzero;stroke:none;font-family:NimbusSanL;-inkscape-font-specification:NimbusSanL-Regu">0</tspan></text>
</g><path
                   id="path24859"
                   style="fill:none;stroke:#000000;stroke-width:5;stroke-linecap:butt;stroke-linejoin:miter;stroke-miterlimit:10;stroke-dasharray:none;stroke-opacity:1"
                   d="M 561,330 L 561,361.5 M 561,1128 L 561,1096.5" /><path
                   id="path24861"
                   style="fill:none;stroke:#000000;stroke-width:5;stroke-linecap:butt;stroke-linejoin:miter;stroke-miterlimit:10;stroke-dasharray:none;stroke-opacity:1"
                   d="M 915.5,330 L 915.5,361.5 M 915.5,1128 L 915.5,1096.5" /><g
                   transform="scale(10,10)"
                   id="g24863"><text
                     id="text24865"
                     transform="matrix(1,0,0,-1,83.9057,18.35)"><tspan
                       id="tspan24867"
                       sodipodi:role="line"
                       y="0"
                       x="0 6.1160002 12.232"
                       style="font-size:11px;font-variant:normal;writing-mode:lr-tb;fill:#000000;fill-opacity:1;fill-rule:nonzero;stroke:none;font-family:NimbusSanL;-inkscape-font-specification:NimbusSanL-Regu">500</tspan></text>
</g><path
                   id="path24869"
                   style="fill:none;stroke:#000000;stroke-width:5;stroke-linecap:butt;stroke-linejoin:miter;stroke-miterlimit:10;stroke-dasharray:none;stroke-opacity:1"
                   d="M 915.5,330 L 915.5,361.5 M 915.5,1128 L 915.5,1096.5" /><path
                   id="path24871"
                   style="fill:none;stroke:#000000;stroke-width:5;stroke-linecap:butt;stroke-linejoin:miter;stroke-miterlimit:10;stroke-dasharray:none;stroke-opacity:1"
                   d="M 1270,330 L 1270,361.5 M 1270,1128 L 1270,1096.5" /><g
                   transform="scale(10,10)"
                   id="g24873"><text
                     id="text24875"
                     transform="matrix(1,0,0,-1,116.298,18.35)"><tspan
                       id="tspan24877"
                       sodipodi:role="line"
                       y="0"
                       x="0 6.1160002 12.232 18.348"
                       style="font-size:11px;font-variant:normal;writing-mode:lr-tb;fill:#000000;fill-opacity:1;fill-rule:nonzero;stroke:none;font-family:NimbusSanL;-inkscape-font-specification:NimbusSanL-Regu">1000</tspan></text>
</g><path
                   id="path24879"
                   style="fill:none;stroke:#000000;stroke-width:5;stroke-linecap:butt;stroke-linejoin:miter;stroke-miterlimit:10;stroke-dasharray:none;stroke-opacity:1"
                   d="M 1270,330 L 1270,361.5 M 1270,1128 L 1270,1096.5" /><path
                   id="path24881"
                   style="fill:none;stroke:#000000;stroke-width:5;stroke-linecap:butt;stroke-linejoin:miter;stroke-miterlimit:10;stroke-dasharray:none;stroke-opacity:1"
                   d="M 1624,330 L 1624,361.5 M 1624,1128 L 1624,1096.5" /><g
                   transform="scale(10,10)"
                   id="g24883"><text
                     id="text24885"
                     transform="matrix(1,0,0,-1,151.698,18.35)"><tspan
                       id="tspan24887"
                       sodipodi:role="line"
                       y="0"
                       x="0 6.1160002 12.232 18.348"
                       style="font-size:11px;font-variant:normal;writing-mode:lr-tb;fill:#000000;fill-opacity:1;fill-rule:nonzero;stroke:none;font-family:NimbusSanL;-inkscape-font-specification:NimbusSanL-Regu">1500</tspan></text>
</g><path
                   id="path24889"
                   style="fill:none;stroke:#000000;stroke-width:5;stroke-linecap:butt;stroke-linejoin:miter;stroke-miterlimit:10;stroke-dasharray:none;stroke-opacity:1"
                   d="M 1624,330 L 1624,361.5 M 1624,1128 L 1624,1096.5" /><path
                   id="path24891"
                   style="fill:none;stroke:#000000;stroke-width:5;stroke-linecap:butt;stroke-linejoin:miter;stroke-miterlimit:10;stroke-dasharray:none;stroke-opacity:1"
                   d="M 1978.5,330 L 1978.5,361.5 M 1978.5,1128 L 1978.5,1096.5" /><g
                   transform="scale(10,10)"
                   id="g24893"><text
                     id="text24895"
                     transform="matrix(1,0,0,-1,187.148,18.35)"><tspan
                       id="tspan24897"
                       sodipodi:role="line"
                       y="0"
                       x="0 6.1160002 12.232 18.348"
                       style="font-size:11px;font-variant:normal;writing-mode:lr-tb;fill:#000000;fill-opacity:1;fill-rule:nonzero;stroke:none;font-family:NimbusSanL;-inkscape-font-specification:NimbusSanL-Regu">2000</tspan></text>
</g><path
                   id="path24899"
                   style="fill:none;stroke:#000000;stroke-width:5;stroke-linecap:butt;stroke-linejoin:miter;stroke-miterlimit:10;stroke-dasharray:none;stroke-opacity:1"
                   d="M 1978.5,330 L 1978.5,361.5 M 1978.5,1128 L 1978.5,1096.5" /><path
                   id="path24901"
                   style="fill:none;stroke:#000000;stroke-width:5;stroke-linecap:butt;stroke-linejoin:miter;stroke-miterlimit:10;stroke-dasharray:none;stroke-opacity:1"
                   d="M 2333,330 L 2333,361.5 M 2333,1128 L 2333,1096.5" /><g
                   transform="scale(10,10)"
                   id="g24903"><text
                     id="text24905"
                     transform="matrix(1,0,0,-1,222.598,18.35)"><tspan
                       id="tspan24907"
                       sodipodi:role="line"
                       y="0"
                       x="0 6.1160002 12.232 18.348"
                       style="font-size:11px;font-variant:normal;writing-mode:lr-tb;fill:#000000;fill-opacity:1;fill-rule:nonzero;stroke:none;font-family:NimbusSanL;-inkscape-font-specification:NimbusSanL-Regu">2500</tspan></text>
</g><path
                   id="path24909"
                   style="fill:none;stroke:#000000;stroke-width:5;stroke-linecap:butt;stroke-linejoin:miter;stroke-miterlimit:10;stroke-dasharray:none;stroke-opacity:1"
                   d="M 2333,330 L 2333,361.5 M 2333,1128 L 2333,1096.5" /><path
                   id="path24911"
                   style="fill:none;stroke:#000000;stroke-width:5;stroke-linecap:butt;stroke-linejoin:miter;stroke-miterlimit:10;stroke-dasharray:none;stroke-opacity:1"
                   d="M 561,330 L 2333,330 L 2333,1128 L 561,1128 L 561,330 z" /><g
                   transform="scale(10,10)"
                   id="g24913"><text
                     id="text24915"
                     transform="matrix(0,1,1,0,14.65,47.2273)"><tspan
                       id="tspan24917"
                       sodipodi:role="line"
                       y="0"
                       x="0 7.3369999 11 17.115999 23.232 29.348 35.464001 37.905998 40.348 42.790001 45.848"
                       style="font-size:11px;font-variant:normal;writing-mode:lr-tb;fill:#000000;fill-opacity:1;fill-rule:nonzero;stroke:none;font-family:NimbusSanL;-inkscape-font-specification:NimbusSanL-Regu">Probability</tspan></text>
<text
                     id="text24919"
                     transform="matrix(1,0,0,-1,86.3148,1.85)"><tspan
                       id="tspan24921"
                       sodipodi:role="line"
                       y="0"
                       x="0 7.9419999 14.058 23.221001 29.337 35.452999 39.116001 42.174 48.290001 51.348 54.405998 60.521999 63.580002 66.638 72.753998 78.253998 83.753998 86.811996 92.928001 99.043999 105.16 111.276"
                       style="font-size:11px;font-variant:normal;writing-mode:lr-tb;fill:#000000;fill-opacity:1;fill-rule:nonzero;stroke:none;font-family:NimbusSanL;-inkscape-font-specification:NimbusSanL-Regu">Number of attack edges</tspan><tspan
                       id="tspan24923"
                       sodipodi:role="line"
                       y="-51.450001"
                       x="-13.6723 -5.7302999 -3.2883 -0.23029999 5.8857002 8.9436998 12.6067 18.7227 24.838699 30.9547 37.070702 43.186699 49.3027 55.418701 60.918701 66.418701 69.4767 73.139702 79.563698 85.987701 89.0457 95.161697 101.2777"
                       style="font-size:11px;font-variant:normal;writing-mode:lr-tb;fill:#000000;fill-opacity:1;fill-rule:nonzero;stroke:none;font-family:NimbusSanL;-inkscape-font-specification:NimbusSanL-Regu">with redundancy (&gt;= 10)</tspan></text>
</g><path
                   id="path24925"
                   style="fill:none;stroke:#000000;stroke-width:5;stroke-linecap:butt;stroke-linejoin:miter;stroke-miterlimit:10;stroke-dasharray:none;stroke-opacity:1"
                   d="M 1978.5,569.5 L 2274,569.5 M 561,1090 L 1629,1090 L 1991.5,1089 L 2333,1088.5" /><g
                   transform="scale(10,10)"
                   id="g24927"><text
                     id="text24929"
                     transform="matrix(1,0,0,-1,86.084,42.3)"><tspan
                       id="tspan24931"
                       sodipodi:role="line"
                       y="0"
                       x="0 6.1160002 12.232 15.29 18.952999 25.069 31.184999 37.300999 43.417 49.533001 55.648998 61.764999 67.264999 72.764999 75.822998 79.486 85.910004 92.334 95.391998 101.508"
                       style="font-size:11px;font-variant:normal;writing-mode:lr-tb;fill:#000000;fill-opacity:1;fill-rule:nonzero;stroke:none;font-family:NimbusSanL;-inkscape-font-specification:NimbusSanL-Regu">no redundancy (&gt;= 1)</tspan></text>
</g><path
                   id="path24933"
                   style="fill:none;stroke:#000000;stroke-width:5;stroke-linecap:butt;stroke-linejoin:miter;stroke-miterlimit:10;stroke-dasharray:20, 10;stroke-dashoffset:0;stroke-opacity:1"
                   d="M 1978.5,459.5 L 2274,459.5 M 561,1048 L 929,1023 L 1287.5,1009.5 L 1629,985 L 1991.5,969 L 2333,959" /><path
                   id="path24935"
                   style="fill:none;stroke:#000000;stroke-width:5;stroke-linecap:butt;stroke-linejoin:miter;stroke-miterlimit:10;stroke-dasharray:none;stroke-opacity:1"
                   d="M 561,330 L 2333,330 L 2333,1128 L 561,1128 L 561,330 z" /></g></g></g></g></g></g></g></svg>