<?xml version="1.0" encoding="UTF-8" standalone="no"?>
<!-- Created with Inkscape (http://www.inkscape.org/) -->
<svg
   xmlns:dc="http://purl.org/dc/elements/1.1/"
   xmlns:cc="http://creativecommons.org/ns#"
   xmlns:rdf="http://www.w3.org/1999/02/22-rdf-syntax-ns#"
   xmlns:svg="http://www.w3.org/2000/svg"
   xmlns="http://www.w3.org/2000/svg"
   xmlns:sodipodi="http://sodipodi.sourceforge.net/DTD/sodipodi-0.dtd"
   xmlns:inkscape="http://www.inkscape.org/namespaces/inkscape"
   id="svg2403"
   sodipodi:version="0.32"
   inkscape:version="0.46"
   width="240.92149"
   height="113.36904"
   xml:space="preserve"
   sodipodi:docname="result_sybil_nodes.svg"
   version="1.0"
   inkscape:output_extension="org.inkscape.output.svg.inkscape"><metadata
     id="metadata2408"><rdf:RDF><cc:Work
         rdf:about=""><dc:format>image/svg+xml</dc:format><dc:type
           rdf:resource="http://purl.org/dc/dcmitype/StillImage" /></cc:Work></rdf:RDF></metadata><defs
     id="defs2406"><inkscape:perspective
       sodipodi:type="inkscape:persp3d"
       inkscape:vp_x="0 : 526.18109 : 1"
       inkscape:vp_y="0 : 1000 : 0"
       inkscape:vp_z="744.09448 : 526.18109 : 1"
       inkscape:persp3d-origin="372.04724 : 350.78739 : 1"
       id="perspective2410" /><clipPath
       clipPathUnits="userSpaceOnUse"
       id="clipPath2430"><path
         d="M 0,0 L 251,0 L 251,126 L 0,126 L 0,0 z"
         id="path2432" /></clipPath><clipPath
       clipPathUnits="userSpaceOnUse"
       id="clipPath3264"><path
         d="M 0,0 L 251,0 L 251,126 L 0,126 L 0,0 z"
         id="path3266" /></clipPath><clipPath
       clipPathUnits="userSpaceOnUse"
       id="clipPath4368"><path
         d="M 0,0 L 251,0 L 251,126 L 0,126 L 0,0 z"
         id="path4370" /></clipPath></defs><sodipodi:namedview
     inkscape:window-height="748"
     inkscape:window-width="1022"
     inkscape:pageshadow="2"
     inkscape:pageopacity="0.0"
     guidetolerance="10.0"
     gridtolerance="10.0"
     objecttolerance="10.0"
     borderopacity="1.0"
     bordercolor="#666666"
     pagecolor="#ffffff"
     id="base"
     showgrid="false"
     inkscape:zoom="0.47070707"
     inkscape:cx="382.5"
     inkscape:cy="314.0079"
     inkscape:window-x="0"
     inkscape:window-y="0"
     inkscape:current-layer="g2412" /><g
     id="g2412"
     inkscape:groupmode="layer"
     inkscape:label="yu-sybilguard-tr"
     transform="matrix(1.25,0,0,-1.25,-866.72123,-97.334545)"><g
       transform="matrix(0.8,0,0,0.8,688.34292,-168.56287)"
       id="g4358"><g
         id="g4360"><g
           id="g4362"><g
             id="g4364"><g
               clip-path="url(#clipPath4368)"
               id="g4366"><g
                 transform="scale(0.1,0.1)"
                 id="g4372"><path
                   id="path4374"
                   style="fill:none;stroke:#000000;stroke-width:5;stroke-linecap:butt;stroke-linejoin:miter;stroke-miterlimit:10;stroke-dasharray:none;stroke-opacity:1"
                   d="M 561,330 L 592.5,330 M 2333,330 L 2301.5,330" /><g
                   transform="scale(10,10)"
                   id="g4376"><text
                     id="text4378"
                     transform="matrix(1,0,0,-1,43.3846,29.35)"><tspan
                       id="tspan4380"
                       y="0"
                       x="0"
                       style="font-size:11px;font-variant:normal;writing-mode:lr-tb;fill:#000000;fill-opacity:1;fill-rule:nonzero;stroke:none;font-family:NimbusSanL;-inkscape-font-specification:NimbusSanL-Regu">0</tspan></text>
</g><path
                   id="path4382"
                   style="fill:none;stroke:#000000;stroke-width:5;stroke-linecap:butt;stroke-linejoin:miter;stroke-miterlimit:10;stroke-dasharray:none;stroke-opacity:1"
                   d="M 561,330 L 592.5,330 M 2333,330 L 2301.5,330" /><path
                   id="path4384"
                   style="fill:none;stroke:#000000;stroke-width:5;stroke-linecap:butt;stroke-linejoin:miter;stroke-miterlimit:10;stroke-dasharray:none;stroke-opacity:1"
                   d="M 561,482 L 592.5,482 M 2333,482 L 2301.5,482" /><g
                   transform="scale(10,10)"
                   id="g4386"><text
                     id="text4388"
                     transform="matrix(1,0,0,-1,34.2111,44.55)"><tspan
                       id="tspan4390"
                       sodipodi:role="line"
                       y="0"
                       x="0 6.1160002 9.1739998"
                       style="font-size:11px;font-variant:normal;writing-mode:lr-tb;fill:#000000;fill-opacity:1;fill-rule:nonzero;stroke:none;font-family:NimbusSanL;-inkscape-font-specification:NimbusSanL-Regu">0.2</tspan></text>
</g><path
                   id="path4392"
                   style="fill:none;stroke:#000000;stroke-width:5;stroke-linecap:butt;stroke-linejoin:miter;stroke-miterlimit:10;stroke-dasharray:none;stroke-opacity:1"
                   d="M 561,482 L 592.5,482 M 2333,482 L 2301.5,482" /><path
                   id="path4394"
                   style="fill:none;stroke:#000000;stroke-width:5;stroke-linecap:butt;stroke-linejoin:miter;stroke-miterlimit:10;stroke-dasharray:none;stroke-opacity:1"
                   d="M 561,634 L 592.5,634 M 2333,634 L 2301.5,634" /><g
                   transform="scale(10,10)"
                   id="g4396"><text
                     id="text4398"
                     transform="matrix(1,0,0,-1,34.2111,59.75)"><tspan
                       id="tspan4400"
                       sodipodi:role="line"
                       y="0"
                       x="0 6.1160002 9.1739998"
                       style="font-size:11px;font-variant:normal;writing-mode:lr-tb;fill:#000000;fill-opacity:1;fill-rule:nonzero;stroke:none;font-family:NimbusSanL;-inkscape-font-specification:NimbusSanL-Regu">0.4</tspan></text>
</g><path
                   id="path4402"
                   style="fill:none;stroke:#000000;stroke-width:5;stroke-linecap:butt;stroke-linejoin:miter;stroke-miterlimit:10;stroke-dasharray:none;stroke-opacity:1"
                   d="M 561,634 L 592.5,634 M 2333,634 L 2301.5,634" /><path
                   id="path4404"
                   style="fill:none;stroke:#000000;stroke-width:5;stroke-linecap:butt;stroke-linejoin:miter;stroke-miterlimit:10;stroke-dasharray:none;stroke-opacity:1"
                   d="M 561,786 L 592.5,786 M 2333,786 L 2301.5,786" /><g
                   transform="scale(10,10)"
                   id="g4406"><text
                     id="text4408"
                     transform="matrix(1,0,0,-1,34.2111,74.95)"><tspan
                       id="tspan4410"
                       sodipodi:role="line"
                       y="0"
                       x="0 6.1160002 9.1739998"
                       style="font-size:11px;font-variant:normal;writing-mode:lr-tb;fill:#000000;fill-opacity:1;fill-rule:nonzero;stroke:none;font-family:NimbusSanL;-inkscape-font-specification:NimbusSanL-Regu">0.6</tspan></text>
</g><path
                   id="path4412"
                   style="fill:none;stroke:#000000;stroke-width:5;stroke-linecap:butt;stroke-linejoin:miter;stroke-miterlimit:10;stroke-dasharray:none;stroke-opacity:1"
                   d="M 561,786 L 592.5,786 M 2333,786 L 2301.5,786" /><path
                   id="path4414"
                   style="fill:none;stroke:#000000;stroke-width:5;stroke-linecap:butt;stroke-linejoin:miter;stroke-miterlimit:10;stroke-dasharray:none;stroke-opacity:1"
                   d="M 561,938 L 592.5,938 M 2333,938 L 2301.5,938" /><g
                   transform="scale(10,10)"
                   id="g4416"><text
                     id="text4418"
                     transform="matrix(1,0,0,-1,34.2111,90.15)"><tspan
                       id="tspan4420"
                       sodipodi:role="line"
                       y="0"
                       x="0 6.1160002 9.1739998"
                       style="font-size:11px;font-variant:normal;writing-mode:lr-tb;fill:#000000;fill-opacity:1;fill-rule:nonzero;stroke:none;font-family:NimbusSanL;-inkscape-font-specification:NimbusSanL-Regu">0.8</tspan></text>
</g><path
                   id="path4422"
                   style="fill:none;stroke:#000000;stroke-width:5;stroke-linecap:butt;stroke-linejoin:miter;stroke-miterlimit:10;stroke-dasharray:none;stroke-opacity:1"
                   d="M 561,938 L 592.5,938 M 2333,938 L 2301.5,938" /><path
                   id="path4424"
                   style="fill:none;stroke:#000000;stroke-width:5;stroke-linecap:butt;stroke-linejoin:miter;stroke-miterlimit:10;stroke-dasharray:none;stroke-opacity:1"
                   d="M 561,1090 L 592.5,1090 M 2333,1090 L 2301.5,1090" /><g
                   transform="scale(10,10)"
                   id="g4426"><text
                     id="text4428"
                     transform="matrix(1,0,0,-1,43.3846,105.35)"><tspan
                       id="tspan4430"
                       y="0"
                       x="0"
                       style="font-size:11px;font-variant:normal;writing-mode:lr-tb;fill:#000000;fill-opacity:1;fill-rule:nonzero;stroke:none;font-family:NimbusSanL;-inkscape-font-specification:NimbusSanL-Regu">1</tspan></text>
</g><path
                   id="path4432"
                   style="fill:none;stroke:#000000;stroke-width:5;stroke-linecap:butt;stroke-linejoin:miter;stroke-miterlimit:10;stroke-dasharray:none;stroke-opacity:1"
                   d="M 561,1090 L 592.5,1090 M 2333,1090 L 2301.5,1090" /><path
                   id="path4434"
                   style="fill:none;stroke:#000000;stroke-width:5;stroke-linecap:butt;stroke-linejoin:miter;stroke-miterlimit:10;stroke-dasharray:none;stroke-opacity:1"
                   d="M 561,330 L 561,361.5 M 561,1128 L 561,1096.5" /><g
                   transform="scale(10,10)"
                   id="g4436"><text
                     id="text4438"
                     transform="matrix(1,0,0,-1,54.5713,18.35)"><tspan
                       id="tspan4440"
                       y="0"
                       x="0"
                       style="font-size:11px;font-variant:normal;writing-mode:lr-tb;fill:#000000;fill-opacity:1;fill-rule:nonzero;stroke:none;font-family:NimbusSanL;-inkscape-font-specification:NimbusSanL-Regu">0</tspan></text>
</g><path
                   id="path4442"
                   style="fill:none;stroke:#000000;stroke-width:5;stroke-linecap:butt;stroke-linejoin:miter;stroke-miterlimit:10;stroke-dasharray:none;stroke-opacity:1"
                   d="M 561,330 L 561,361.5 M 561,1128 L 561,1096.5" /><path
                   id="path4444"
                   style="fill:none;stroke:#000000;stroke-width:5;stroke-linecap:butt;stroke-linejoin:miter;stroke-miterlimit:10;stroke-dasharray:none;stroke-opacity:1"
                   d="M 915.5,330 L 915.5,361.5 M 915.5,1128 L 915.5,1096.5" /><g
                   transform="scale(10,10)"
                   id="g4446"><text
                     id="text4448"
                     transform="matrix(1,0,0,-1,83.9057,18.35)"><tspan
                       id="tspan4450"
                       sodipodi:role="line"
                       y="0"
                       x="0 6.1160002 12.232"
                       style="font-size:11px;font-variant:normal;writing-mode:lr-tb;fill:#000000;fill-opacity:1;fill-rule:nonzero;stroke:none;font-family:NimbusSanL;-inkscape-font-specification:NimbusSanL-Regu">500</tspan></text>
</g><path
                   id="path4452"
                   style="fill:none;stroke:#000000;stroke-width:5;stroke-linecap:butt;stroke-linejoin:miter;stroke-miterlimit:10;stroke-dasharray:none;stroke-opacity:1"
                   d="M 915.5,330 L 915.5,361.5 M 915.5,1128 L 915.5,1096.5" /><path
                   id="path4454"
                   style="fill:none;stroke:#000000;stroke-width:5;stroke-linecap:butt;stroke-linejoin:miter;stroke-miterlimit:10;stroke-dasharray:none;stroke-opacity:1"
                   d="M 1270,330 L 1270,361.5 M 1270,1128 L 1270,1096.5" /><g
                   transform="scale(10,10)"
                   id="g4456"><text
                     id="text4458"
                     transform="matrix(1,0,0,-1,116.298,18.35)"><tspan
                       id="tspan4460"
                       sodipodi:role="line"
                       y="0"
                       x="0 6.1160002 12.232 18.348"
                       style="font-size:11px;font-variant:normal;writing-mode:lr-tb;fill:#000000;fill-opacity:1;fill-rule:nonzero;stroke:none;font-family:NimbusSanL;-inkscape-font-specification:NimbusSanL-Regu">1000</tspan></text>
</g><path
                   id="path4462"
                   style="fill:none;stroke:#000000;stroke-width:5;stroke-linecap:butt;stroke-linejoin:miter;stroke-miterlimit:10;stroke-dasharray:none;stroke-opacity:1"
                   d="M 1270,330 L 1270,361.5 M 1270,1128 L 1270,1096.5" /><path
                   id="path4464"
                   style="fill:none;stroke:#000000;stroke-width:5;stroke-linecap:butt;stroke-linejoin:miter;stroke-miterlimit:10;stroke-dasharray:none;stroke-opacity:1"
                   d="M 1624,330 L 1624,361.5 M 1624,1128 L 1624,1096.5" /><g
                   transform="scale(10,10)"
                   id="g4466"><text
                     id="text4468"
                     transform="matrix(1,0,0,-1,151.698,18.35)"><tspan
                       id="tspan4470"
                       sodipodi:role="line"
                       y="0"
                       x="0 6.1160002 12.232 18.348"
                       style="font-size:11px;font-variant:normal;writing-mode:lr-tb;fill:#000000;fill-opacity:1;fill-rule:nonzero;stroke:none;font-family:NimbusSanL;-inkscape-font-specification:NimbusSanL-Regu">1500</tspan></text>
</g><path
                   id="path4472"
                   style="fill:none;stroke:#000000;stroke-width:5;stroke-linecap:butt;stroke-linejoin:miter;stroke-miterlimit:10;stroke-dasharray:none;stroke-opacity:1"
                   d="M 1624,330 L 1624,361.5 M 1624,1128 L 1624,1096.5" /><path
                   id="path4474"
                   style="fill:none;stroke:#000000;stroke-width:5;stroke-linecap:butt;stroke-linejoin:miter;stroke-miterlimit:10;stroke-dasharray:none;stroke-opacity:1"
                   d="M 1978.5,330 L 1978.5,361.5 M 1978.5,1128 L 1978.5,1096.5" /><g
                   transform="scale(10,10)"
                   id="g4476"><text
                     id="text4478"
                     transform="matrix(1,0,0,-1,187.148,18.35)"><tspan
                       id="tspan4480"
                       sodipodi:role="line"
                       y="0"
                       x="0 6.1160002 12.232 18.348"
                       style="font-size:11px;font-variant:normal;writing-mode:lr-tb;fill:#000000;fill-opacity:1;fill-rule:nonzero;stroke:none;font-family:NimbusSanL;-inkscape-font-specification:NimbusSanL-Regu">2000</tspan></text>
</g><path
                   id="path4482"
                   style="fill:none;stroke:#000000;stroke-width:5;stroke-linecap:butt;stroke-linejoin:miter;stroke-miterlimit:10;stroke-dasharray:none;stroke-opacity:1"
                   d="M 1978.5,330 L 1978.5,361.5 M 1978.5,1128 L 1978.5,1096.5" /><path
                   id="path4484"
                   style="fill:none;stroke:#000000;stroke-width:5;stroke-linecap:butt;stroke-linejoin:miter;stroke-miterlimit:10;stroke-dasharray:none;stroke-opacity:1"
                   d="M 2333,330 L 2333,361.5 M 2333,1128 L 2333,1096.5" /><g
                   transform="scale(10,10)"
                   id="g4486"><text
                     id="text4488"
                     transform="matrix(1,0,0,-1,222.598,18.35)"><tspan
                       id="tspan4490"
                       sodipodi:role="line"
                       y="0"
                       x="0 6.1160002 12.232 18.348"
                       style="font-size:11px;font-variant:normal;writing-mode:lr-tb;fill:#000000;fill-opacity:1;fill-rule:nonzero;stroke:none;font-family:NimbusSanL;-inkscape-font-specification:NimbusSanL-Regu">2500</tspan></text>
</g><path
                   id="path4492"
                   style="fill:none;stroke:#000000;stroke-width:5;stroke-linecap:butt;stroke-linejoin:miter;stroke-miterlimit:10;stroke-dasharray:none;stroke-opacity:1"
                   d="M 2333,330 L 2333,361.5 M 2333,1128 L 2333,1096.5" /><path
                   id="path4494"
                   style="fill:none;stroke:#000000;stroke-width:5;stroke-linecap:butt;stroke-linejoin:miter;stroke-miterlimit:10;stroke-dasharray:none;stroke-opacity:1"
                   d="M 561,330 L 2333,330 L 2333,1128 L 561,1128 L 561,330 z" /><g
                   transform="scale(10,10)"
                   id="g4496"><text
                     id="text4498"
                     transform="matrix(0,1,1,0,14.65,47.2273)"><tspan
                       id="tspan4500"
                       sodipodi:role="line"
                       y="0"
                       x="0 7.3369999 11 17.115999 23.232 29.348 35.464001 37.905998 40.348 42.790001 45.848"
                       style="font-size:11px;font-variant:normal;writing-mode:lr-tb;fill:#000000;fill-opacity:1;fill-rule:nonzero;stroke:none;font-family:NimbusSanL;-inkscape-font-specification:NimbusSanL-Regu">Probability</tspan></text>
<text
                     id="text4502"
                     transform="matrix(1,0,0,-1,86.3148,1.85)"><tspan
                       id="tspan4504"
                       sodipodi:role="line"
                       y="0"
                       x="0 7.9419999 14.058 23.221001 29.337 35.452999 39.116001 42.174 48.290001 51.348 54.405998 60.521999 63.580002 66.638 72.753998 78.253998 83.753998 86.811996 92.928001 99.043999 105.16 111.276"
                       style="font-size:11px;font-variant:normal;writing-mode:lr-tb;fill:#000000;fill-opacity:1;fill-rule:nonzero;stroke:none;font-family:NimbusSanL;-inkscape-font-specification:NimbusSanL-Regu">Number of attack edges</tspan><tspan
                       id="tspan4506"
                       sodipodi:role="line"
                       y="-51.450001"
                       x="32.811298 41.9743 48.090302 50.532299 56.6483 60.311298 62.7533 65.811302 71.311302 74.369301 78.032303 84.1483 90.264297 93.322304 99.438301"
                       style="font-size:11px;font-variant:normal;writing-mode:lr-tb;fill:#000000;fill-opacity:1;fill-rule:nonzero;stroke:none;font-family:NimbusSanL;-inkscape-font-specification:NimbusSanL-Regu">majority routes</tspan></text>
</g><path
                   id="path4508"
                   style="fill:none;stroke:#000000;stroke-width:5;stroke-linecap:butt;stroke-linejoin:miter;stroke-miterlimit:10;stroke-dasharray:none;stroke-opacity:1"
                   d="M 1978.5,569.5 L 2274,569.5 M 561,1090 L 1991.5,1090 L 2333,1088.5" /><g
                   transform="scale(10,10)"
                   id="g4510"><text
                     id="text4512"
                     transform="matrix(1,0,0,-1,134.394,42.3)"><tspan
                       id="tspan4514"
                       sodipodi:role="line"
                       y="0"
                       x="0 5.5 7.9419999 14.058 20.174 22.615999 28.732 31.790001 35.452999 41.569 47.685001 50.743"
                       style="font-size:11px;font-variant:normal;writing-mode:lr-tb;fill:#000000;fill-opacity:1;fill-rule:nonzero;stroke:none;font-family:NimbusSanL;-inkscape-font-specification:NimbusSanL-Regu">single route</tspan></text>
</g><path
                   id="path4516"
                   style="fill:none;stroke:#000000;stroke-width:5;stroke-linecap:butt;stroke-linejoin:miter;stroke-miterlimit:10;stroke-dasharray:20, 10;stroke-dashoffset:0;stroke-opacity:1"
                   d="M 1978.5,459.5 L 2274,459.5 M 561,1090 L 929,1062.5 L 1287.5,1027.5 L 1629,1007 L 1991.5,992.5 L 2333,955.5" /><path
                   id="path4518"
                   style="fill:none;stroke:#000000;stroke-width:5;stroke-linecap:butt;stroke-linejoin:miter;stroke-miterlimit:10;stroke-dasharray:none;stroke-opacity:1"
                   d="M 561,330 L 2333,330 L 2333,1128 L 561,1128 L 561,330 z" /></g></g></g></g></g></g></g></svg>