<?xml version="1.0" encoding="UTF-8" standalone="no"?>
<!-- Created with Inkscape (http://www.inkscape.org/) -->
<svg
   xmlns:dc="http://purl.org/dc/elements/1.1/"
   xmlns:cc="http://creativecommons.org/ns#"
   xmlns:rdf="http://www.w3.org/1999/02/22-rdf-syntax-ns#"
   xmlns:svg="http://www.w3.org/2000/svg"
   xmlns="http://www.w3.org/2000/svg"
   xmlns:sodipodi="http://sodipodi.sourceforge.net/DTD/sodipodi-0.dtd"
   xmlns:inkscape="http://www.inkscape.org/namespaces/inkscape"
   id="svg2403"
   sodipodi:version="0.32"
   inkscape:version="0.46"
   width="240.59998"
   height="115.2407"
   xml:space="preserve"
   sodipodi:docname="social_network.svg"
   version="1.0"
   inkscape:output_extension="org.inkscape.output.svg.inkscape"><metadata
     id="metadata2408"><rdf:RDF><cc:Work
         rdf:about=""><dc:format>image/svg+xml</dc:format><dc:type
           rdf:resource="http://purl.org/dc/dcmitype/StillImage" /></cc:Work></rdf:RDF></metadata><defs
     id="defs2406"><inkscape:perspective
       sodipodi:type="inkscape:persp3d"
       inkscape:vp_x="0 : 526.18109 : 1"
       inkscape:vp_y="0 : 1000 : 0"
       inkscape:vp_z="744.09448 : 526.18109 : 1"
       inkscape:persp3d-origin="372.04724 : 350.78739 : 1"
       id="perspective2410" /><clipPath
       clipPathUnits="userSpaceOnUse"
       id="clipPath2432"><path
         d="M 0,0 L 390,0 L 390,188 L 0,188 L 0,0 z"
         id="path2434" /></clipPath><clipPath
       clipPathUnits="userSpaceOnUse"
       id="clipPath2498"><path
         d="M 0,1880 L 0,0 L 3900,0 L 3900,1880 L 0,1880 z M 2025,481.398 L 2025,572 L 1953,572 L 1953,481.398 L 1953,481.398 L 1989,537.199 L 2025,481.398 z"
         clip-rule="evenodd"
         id="path2500" /></clipPath></defs><sodipodi:namedview
     inkscape:window-height="748"
     inkscape:window-width="1022"
     inkscape:pageshadow="2"
     inkscape:pageopacity="0.0"
     guidetolerance="10.0"
     gridtolerance="10.0"
     objecttolerance="10.0"
     borderopacity="1.0"
     bordercolor="#666666"
     pagecolor="#ffffff"
     id="base"
     showgrid="false"
     inkscape:zoom="2.7531923"
     inkscape:cx="143.40129"
     inkscape:cy="69.07933"
     inkscape:window-x="0"
     inkscape:window-y="0"
     inkscape:current-layer="g2420" /><g
     id="g2412"
     inkscape:groupmode="layer"
     inkscape:label="yu-sybilguard-tr"
     transform="matrix(1.25,0,0,-1.25,2.6149045,39.755682)"><g
       id="g2414"
       transform="translate(474.82247,-5.0987124)"><g
         id="g2416"
         transform="translate(-502.0156,0)"><g
           transform="translate(21.9702,-93.9998)"
           id="g2420"><g
             transform="matrix(0.5,0,0,0.5,1.6995709,37.390558)"
             id="g2422"><g
               id="g2424"><g
                 id="g2426"><g
                   id="g2428"><g
                     clip-path="url(#clipPath2432)"
                     id="g2430"><g
                       transform="scale(0.1,0.1)"
                       id="g2436"><path
                         id="path2438"
                         style="fill:#000000;fill-opacity:1;fill-rule:evenodd;stroke:none"
                         d="M 1571.4,1373 C 1571.4,1355.11 1556.89,1340.6 1539,1340.6 C 1521.11,1340.6 1506.6,1355.11 1506.6,1373 C 1506.6,1390.89 1521.11,1405.4 1539,1405.4 C 1556.89,1405.4 1571.4,1390.89 1571.4,1373" /><path
                         id="path2440"
                         style="fill:none;stroke:#000000;stroke-width:4.5;stroke-linecap:butt;stroke-linejoin:miter;stroke-miterlimit:10;stroke-dasharray:none;stroke-opacity:1"
                         d="M 1571.4,1373 C 1571.4,1355.11 1556.89,1340.6 1539,1340.6 C 1521.11,1340.6 1506.6,1355.11 1506.6,1373 C 1506.6,1390.89 1521.11,1405.4 1539,1405.4 C 1556.89,1405.4 1571.4,1390.89 1571.4,1373 z" /><path
                         id="path2442"
                         style="fill:#000000;fill-opacity:1;fill-rule:evenodd;stroke:none"
                         d="M 1558.8,968 C 1558.8,950.109 1544.29,935.602 1526.4,935.602 C 1508.51,935.602 1494,950.109 1494,968 C 1494,985.891 1508.51,1000.4 1526.4,1000.4 C 1544.29,1000.4 1558.8,985.891 1558.8,968" /><path
                         id="path2444"
                         style="fill:none;stroke:#000000;stroke-width:4.5;stroke-linecap:butt;stroke-linejoin:miter;stroke-miterlimit:10;stroke-dasharray:none;stroke-opacity:1"
                         d="M 1558.8,968 C 1558.8,950.109 1544.29,935.602 1526.4,935.602 C 1508.51,935.602 1494,950.109 1494,968 C 1494,985.891 1508.51,1000.4 1526.4,1000.4 C 1544.29,1000.4 1558.8,985.891 1558.8,968 z" /><path
                         id="path2446"
                         style="fill:#000000;fill-opacity:1;fill-rule:evenodd;stroke:none"
                         d="M 1166.4,1148 C 1166.4,1130.11 1151.89,1115.6 1134,1115.6 C 1116.11,1115.6 1101.6,1130.11 1101.6,1148 C 1101.6,1165.89 1116.11,1180.4 1134,1180.4 C 1151.89,1180.4 1166.4,1165.89 1166.4,1148" /><path
                         id="path2448"
                         style="fill:none;stroke:#000000;stroke-width:4.5;stroke-linecap:butt;stroke-linejoin:miter;stroke-miterlimit:10;stroke-dasharray:none;stroke-opacity:1"
                         d="M 1166.4,1148 C 1166.4,1130.11 1151.89,1115.6 1134,1115.6 C 1116.11,1115.6 1101.6,1130.11 1101.6,1148 C 1101.6,1165.89 1116.11,1180.4 1134,1180.4 C 1151.89,1180.4 1166.4,1165.89 1166.4,1148 z" /><path
                         id="path2450"
                         style="fill:#000000;fill-opacity:1;fill-rule:evenodd;stroke:none"
                         d="M 1121.4,1585.4 C 1121.4,1567.51 1106.89,1553 1089,1553 C 1071.11,1553 1056.6,1567.51 1056.6,1585.4 C 1056.6,1603.29 1071.11,1617.8 1089,1617.8 C 1106.89,1617.8 1121.4,1603.29 1121.4,1585.4" /><path
                         id="path2452"
                         style="fill:none;stroke:#000000;stroke-width:4.5;stroke-linecap:butt;stroke-linejoin:miter;stroke-miterlimit:10;stroke-dasharray:none;stroke-opacity:1"
                         d="M 1121.4,1585.4 C 1121.4,1567.51 1106.89,1553 1089,1553 C 1071.11,1553 1056.6,1567.51 1056.6,1585.4 C 1056.6,1603.29 1071.11,1617.8 1089,1617.8 C 1106.89,1617.8 1121.4,1603.29 1121.4,1585.4 z" /><path
                         id="path2454"
                         style="fill:#000000;fill-opacity:1;fill-rule:evenodd;stroke:none"
                         d="M 941.398,608 C 941.398,590.109 926.891,575.602 909,575.602 C 891.109,575.602 876.602,590.109 876.602,608 C 876.602,625.891 891.109,640.398 909,640.398 C 926.891,640.398 941.398,625.891 941.398,608" /><path
                         id="path2456"
                         style="fill:none;stroke:#000000;stroke-width:4.5;stroke-linecap:butt;stroke-linejoin:miter;stroke-miterlimit:10;stroke-dasharray:none;stroke-opacity:1"
                         d="M 941.398,608 C 941.398,590.109 926.891,575.602 909,575.602 C 891.109,575.602 876.602,590.109 876.602,608 C 876.602,625.891 891.109,640.398 909,640.398 C 926.891,640.398 941.398,625.891 941.398,608 z" /><path
                         id="path2458"
                         style="fill:#000000;fill-opacity:1;fill-rule:evenodd;stroke:none"
                         d="M 739.199,900.797 C 739.199,882.906 724.691,868.398 706.801,868.398 C 688.91,868.398 674.402,882.906 674.402,900.797 C 674.402,918.688 688.91,933.195 706.801,933.195 C 724.691,933.195 739.199,918.688 739.199,900.797" /><path
                         id="path2460"
                         style="fill:none;stroke:#000000;stroke-width:4.5;stroke-linecap:butt;stroke-linejoin:miter;stroke-miterlimit:10;stroke-dasharray:none;stroke-opacity:1"
                         d="M 739.199,900.797 C 739.199,882.906 724.691,868.398 706.801,868.398 C 688.91,868.398 674.402,882.906 674.402,900.797 C 674.402,918.688 688.91,933.195 706.801,933.195 C 724.691,933.195 739.199,918.688 739.199,900.797 z" /><path
                         id="path2462"
                         style="fill:#000000;fill-opacity:1;fill-rule:evenodd;stroke:none"
                         d="M 1494,563 C 1494,545.109 1479.49,530.602 1461.6,530.602 C 1443.71,530.602 1429.2,545.109 1429.2,563 C 1429.2,580.891 1443.71,595.398 1461.6,595.398 C 1479.49,595.398 1494,580.891 1494,563" /><path
                         id="path2464"
                         style="fill:none;stroke:#000000;stroke-width:4.5;stroke-linecap:butt;stroke-linejoin:miter;stroke-miterlimit:10;stroke-dasharray:none;stroke-opacity:1"
                         d="M 1494,563 C 1494,545.109 1479.49,530.602 1461.6,530.602 C 1443.71,530.602 1429.2,545.109 1429.2,563 C 1429.2,580.891 1443.71,595.398 1461.6,595.398 C 1479.49,595.398 1494,580.891 1494,563 z" /><path
                         id="path2466"
                         style="fill:none;stroke:#000000;stroke-width:4.5;stroke-linecap:butt;stroke-linejoin:miter;stroke-miterlimit:10;stroke-dasharray:none;stroke-opacity:1"
                         d="M 1718.4,990.797 C 1718.4,506.336 1466.7,113.598 1156.2,113.598 C 845.711,113.598 594.004,506.336 594.004,990.797 C 594.004,1475.26 845.711,1868 1156.2,1868 C 1466.7,1868 1718.4,1475.26 1718.4,990.797 z" /><path
                         id="path2468"
                         style="fill:none;stroke:#000000;stroke-width:4.5;stroke-linecap:butt;stroke-linejoin:miter;stroke-miterlimit:10;stroke-dasharray:none;stroke-opacity:1"
                         d="M 3338.4,990.797 C 3338.4,506.336 3086.7,113.598 2776.2,113.598 C 2465.71,113.598 2214,506.336 2214,990.797 C 2214,1475.26 2465.71,1868 2776.2,1868 C 3086.7,1868 3338.4,1475.26 3338.4,990.797 z" /><path
                         id="path2470"
                         style="fill:none;stroke:#000000;stroke-width:4.5;stroke-linecap:butt;stroke-linejoin:miter;stroke-miterlimit:10;stroke-dasharray:none;stroke-opacity:1"
                         d="M 2876.4,1013 C 2876.4,995.109 2861.89,980.602 2844,980.602 C 2826.11,980.602 2811.6,995.109 2811.6,1013 C 2811.6,1030.89 2826.11,1045.4 2844,1045.4 C 2861.89,1045.4 2876.4,1030.89 2876.4,1013 z" /><path
                         id="path2472"
                         style="fill:none;stroke:#000000;stroke-width:4.5;stroke-linecap:butt;stroke-linejoin:miter;stroke-miterlimit:10;stroke-dasharray:none;stroke-opacity:1"
                         d="M 2921.4,428 C 2921.4,410.109 2906.89,395.602 2889,395.602 C 2871.11,395.602 2856.6,410.109 2856.6,428 C 2856.6,445.891 2871.11,460.398 2889,460.398 C 2906.89,460.398 2921.4,445.891 2921.4,428 z" /><path
                         id="path2474"
                         style="fill:none;stroke:#000000;stroke-width:4.5;stroke-linecap:butt;stroke-linejoin:miter;stroke-miterlimit:10;stroke-dasharray:none;stroke-opacity:1"
                         d="M 3101.4,653 C 3101.4,635.109 3086.89,620.602 3069,620.602 C 3051.11,620.602 3036.6,635.109 3036.6,653 C 3036.6,670.891 3051.11,685.398 3069,685.398 C 3086.89,685.398 3101.4,670.891 3101.4,653 z" /><path
                         id="path2476"
                         style="fill:none;stroke:#000000;stroke-width:4.5;stroke-linecap:butt;stroke-linejoin:miter;stroke-miterlimit:10;stroke-dasharray:none;stroke-opacity:1"
                         d="M 2898.6,1485.2 C 2898.6,1467.31 2884.09,1452.8 2866.2,1452.8 C 2848.31,1452.8 2833.8,1467.31 2833.8,1485.2 C 2833.8,1503.09 2848.31,1517.6 2866.2,1517.6 C 2884.09,1517.6 2898.6,1503.09 2898.6,1485.2 z" /><path
                         id="path2478"
                         style="fill:none;stroke:#000000;stroke-width:4.5;stroke-linecap:butt;stroke-linejoin:miter;stroke-miterlimit:10;stroke-dasharray:none;stroke-opacity:1"
                         d="M 2484,1238 L 2799,1058" /><path
                         id="path2480"
                         style="fill:none;stroke:#000000;stroke-width:4.5;stroke-linecap:butt;stroke-linejoin:miter;stroke-miterlimit:10;stroke-dasharray:none;stroke-opacity:1"
                         d="M 2799,1013 L 2529,743" /><path
                         id="path2482"
                         style="fill:none;stroke:#000000;stroke-width:4.5;stroke-linecap:butt;stroke-linejoin:miter;stroke-miterlimit:10;stroke-dasharray:none;stroke-opacity:1"
                         d="M 2529,698 L 3024,653" /><path
                         id="path2484"
                         style="fill:none;stroke:#000000;stroke-width:4.5;stroke-linecap:butt;stroke-linejoin:miter;stroke-miterlimit:10;stroke-dasharray:none;stroke-opacity:1"
                         d="M 2484,1283 L 2844,1463" /><path
                         id="path2486"
                         style="fill:none;stroke:#000000;stroke-width:4.5;stroke-linecap:butt;stroke-linejoin:miter;stroke-miterlimit:10;stroke-dasharray:none;stroke-opacity:1"
                         d="M 2889,1463 L 2844,1058" /><path
                         id="path2488"
                         style="fill:none;stroke:#000000;stroke-width:4.5;stroke-linecap:butt;stroke-linejoin:miter;stroke-miterlimit:10;stroke-dasharray:none;stroke-opacity:1"
                         d="M 2889,1463 L 3069,698" /><path
                         id="path2490"
                         style="fill:none;stroke:#000000;stroke-width:4.5;stroke-linecap:butt;stroke-linejoin:miter;stroke-miterlimit:10;stroke-dasharray:none;stroke-opacity:1"
                         d="M 2889,473 L 3024,608" /><path
                         id="path2492"
                         style="fill:none;stroke:#000000;stroke-width:4.5;stroke-linecap:butt;stroke-linejoin:miter;stroke-miterlimit:10;stroke-dasharray:none;stroke-opacity:1"
                         d="M 2844,968 L 2889,473" /><g
                         id="g2494"><g
                           clip-path="url(#clipPath2498)"
                           id="g2496"><path
                             id="path2502"
                             style="fill:none;stroke:#000000;stroke-width:18;stroke-linecap:butt;stroke-linejoin:miter;stroke-miterlimit:10;stroke-dasharray:none;stroke-opacity:1"
                             d="M 1989,383 L 1989,563" /></g></g><path
                         id="path2504"
                         style="fill:#000000;fill-opacity:1;fill-rule:evenodd;stroke:none"
                         d="M 2025,481.398 L 1989,537.199 L 1953,481.398 L 1989,492.199 L 2025,481.398" /><path
                         id="path2506"
                         style="fill:none;stroke:#000000;stroke-width:18;stroke-linecap:butt;stroke-linejoin:miter;stroke-miterlimit:10;stroke-dasharray:none;stroke-opacity:1"
                         d="M 2025,481.398 L 1989,537.199 L 1953,481.398 L 1989,492.199 L 2025,481.398 z" /><g
                         transform="scale(10,10)"
                         id="g2508"><text
                           id="text2510"
                           transform="matrix(1,0,0,-1,171.9,24.8)"><tspan
                             id="tspan2512"
                             sodipodi:role="line"
                             y="0"
                             x="0 13.339867 18.899811 24.459755 35.579643 45.579544"
                             style="font-size:19.99979973px;font-variant:normal;font-weight:normal;writing-mode:lr-tb;fill:#000000;fill-opacity:1;fill-rule:nonzero;stroke:none;font-family:Helvetica;-inkscape-font-specification:Helvetica">Attack</tspan><tspan
                             id="tspan2514"
                             sodipodi:role="line"
                             y="18"
                             x="0 13.339867 24.459755 35.579643 46.699532"
                             style="font-size:19.99979973px;font-variant:normal;font-weight:normal;writing-mode:lr-tb;fill:#000000;fill-opacity:1;fill-rule:nonzero;stroke:none;font-family:Helvetica;-inkscape-font-specification:Helvetica">Edges</tspan></text>
</g><path
                         id="path2516"
                         style="fill:none;stroke:#000000;stroke-width:4.5;stroke-linecap:butt;stroke-linejoin:miter;stroke-miterlimit:10;stroke-dasharray:none;stroke-opacity:1"
                         d="M 2516.4,698 C 2516.4,680.109 2501.89,665.602 2484,665.602 C 2466.11,665.602 2451.6,680.109 2451.6,698 C 2451.6,715.891 2466.11,730.398 2484,730.398 C 2501.89,730.398 2516.4,715.891 2516.4,698 z" /><path
                         id="path2518"
                         style="fill:none;stroke:#000000;stroke-width:4.5;stroke-linecap:butt;stroke-linejoin:miter;stroke-miterlimit:10;stroke-dasharray:none;stroke-opacity:1"
                         d="M 2484,1238 C 2484,1220.11 2469.49,1205.6 2451.6,1205.6 C 2433.71,1205.6 2419.2,1220.11 2419.2,1238 C 2419.2,1255.89 2433.71,1270.4 2451.6,1270.4 C 2469.49,1270.4 2484,1255.89 2484,1238 z" /><path
                         id="path2520"
                         style="fill:none;stroke:#ff0000;stroke-width:18;stroke-linecap:butt;stroke-linejoin:miter;stroke-miterlimit:10;stroke-dasharray:none;stroke-opacity:1"
                         d="M 1494,563 L 2439,698" /><path
                         id="path2522"
                         style="fill:none;stroke:#ff0000;stroke-width:18;stroke-linecap:butt;stroke-linejoin:miter;stroke-miterlimit:10;stroke-dasharray:none;stroke-opacity:1"
                         d="M 1494,563 L 2439,1238" /><path
                         id="path2524"
                         style="fill:none;stroke:#ff0000;stroke-width:18;stroke-linecap:butt;stroke-linejoin:miter;stroke-miterlimit:10;stroke-dasharray:none;stroke-opacity:1"
                         d="M 1584,968 L 2439,1238" /><path
                         id="path2526"
                         style="fill:none;stroke:#ff0000;stroke-width:18;stroke-linecap:butt;stroke-linejoin:miter;stroke-miterlimit:10;stroke-dasharray:none;stroke-opacity:1"
                         d="M 1584,1373 L 2439,1238" /><path
                         id="path2528"
                         style="fill:none;stroke:#000000;stroke-width:4.5;stroke-linecap:butt;stroke-linejoin:miter;stroke-miterlimit:10;stroke-dasharray:none;stroke-opacity:1"
                         d="M 1134,1553 L 1494,1418" /><path
                         id="path2530"
                         style="fill:none;stroke:#000000;stroke-width:4.5;stroke-linecap:butt;stroke-linejoin:miter;stroke-miterlimit:10;stroke-dasharray:none;stroke-opacity:1"
                         d="M 729.004,923 L 1089,1148" /><path
                         id="path2532"
                         style="fill:none;stroke:#000000;stroke-width:4.5;stroke-linecap:butt;stroke-linejoin:miter;stroke-miterlimit:10;stroke-dasharray:none;stroke-opacity:1"
                         d="M 1179,1148 L 1494,1373" /><path
                         id="path2534"
                         style="fill:none;stroke:#000000;stroke-width:4.5;stroke-linecap:butt;stroke-linejoin:miter;stroke-miterlimit:10;stroke-dasharray:none;stroke-opacity:1"
                         d="M 1539,923 L 1494,608" /><path
                         id="path2536"
                         style="fill:none;stroke:#000000;stroke-width:4.5;stroke-linecap:butt;stroke-linejoin:miter;stroke-miterlimit:10;stroke-dasharray:none;stroke-opacity:1"
                         d="M 954.004,608 L 1404,563" /><path
                         id="path2538"
                         style="fill:none;stroke:#000000;stroke-width:4.5;stroke-linecap:butt;stroke-linejoin:miter;stroke-miterlimit:10;stroke-dasharray:none;stroke-opacity:1"
                         d="M 1134,1103 L 1449,608" /><path
                         id="path2540"
                         style="fill:none;stroke:#000000;stroke-width:4.5;stroke-linecap:butt;stroke-linejoin:miter;stroke-miterlimit:10;stroke-dasharray:none;stroke-opacity:1"
                         d="M 1134,1103 L 909.004,653" /><path
                         id="path2542"
                         style="fill:none;stroke:#000000;stroke-width:4.5;stroke-linecap:butt;stroke-linejoin:miter;stroke-miterlimit:10;stroke-dasharray:none;stroke-opacity:1"
                         d="M 729.004,878 L 1494,968" /><path
                         id="path2544"
                         style="fill:none;stroke:#000000;stroke-width:4.5;stroke-linecap:butt;stroke-linejoin:miter;stroke-miterlimit:10;stroke-dasharray:none;stroke-opacity:1"
                         d="M 1044,1553 L 729.004,923" /><g
                         transform="scale(10,10)"
                         id="g2546"><text
                           id="text2548"
                           transform="matrix(1,0,0,-1,333.9,137.3)"><tspan
                             id="tspan2550"
                             sodipodi:role="line"
                             y="0"
                             x="0 11.119889 22.239779 33.359665 44.479557"
                             style="font-size:19.99979973px;font-variant:normal;font-weight:normal;writing-mode:lr-tb;fill:#000000;fill-opacity:1;fill-rule:nonzero;stroke:none;font-family:Helvetica;-inkscape-font-specification:Helvetica">nodes</tspan><tspan
                             id="tspan2552"
                             sodipodi:role="line"
                             y="-22.5"
                             x="-333 -318.56015 -307.44025 -296.32037 -285.20047 -275.20059"
                             style="font-size:19.99979973px;font-variant:normal;font-weight:normal;writing-mode:lr-tb;fill:#000000;fill-opacity:1;fill-rule:nonzero;stroke:none;font-family:Helvetica;-inkscape-font-specification:Helvetica">Honest</tspan><tspan
                             id="tspan2554"
                             sodipodi:role="line"
                             y="0"
                             x="-328.5 -317.3801 -306.26022 -295.14032 -284.02045"
                             style="font-size:19.99979973px;font-variant:normal;font-weight:normal;writing-mode:lr-tb;fill:#000000;fill-opacity:1;fill-rule:nonzero;stroke:none;font-family:Helvetica;-inkscape-font-specification:Helvetica">nodes</tspan><tspan
                             id="tspan2556"
                             sodipodi:role="line"
                             y="-22.5"
                             x="4.5 17.839867 27.839767 38.959656 43.399612"
                             style="font-size:19.99979973px;font-variant:normal;font-weight:normal;writing-mode:lr-tb;fill:#000000;fill-opacity:1;fill-rule:nonzero;stroke:none;font-family:Helvetica;-inkscape-font-specification:Helvetica">Sybil</tspan></text>
</g></g></g></g></g></g></g></g></g></g></g></svg>