<?xml version="1.0" encoding="UTF-8" standalone="no"?>
<!-- Created with Inkscape (http://www.inkscape.org/) -->
<svg
   xmlns:dc="http://purl.org/dc/elements/1.1/"
   xmlns:cc="http://creativecommons.org/ns#"
   xmlns:rdf="http://www.w3.org/1999/02/22-rdf-syntax-ns#"
   xmlns:svg="http://www.w3.org/2000/svg"
   xmlns="http://www.w3.org/2000/svg"
   xmlns:sodipodi="http://sodipodi.sourceforge.net/DTD/sodipodi-0.dtd"
   xmlns:inkscape="http://www.inkscape.org/namespaces/inkscape"
   id="svg8689"
   sodipodi:version="0.32"
   inkscape:version="0.46"
   width="165.69218"
   height="113.7001"
   xml:space="preserve"
   sodipodi:docname="verify_honest.svg"
   version="1.0"
   inkscape:output_extension="org.inkscape.output.svg.inkscape"><metadata
     id="metadata8694"><rdf:RDF><cc:Work
         rdf:about=""><dc:format>image/svg+xml</dc:format><dc:type
           rdf:resource="http://purl.org/dc/dcmitype/StillImage" /></cc:Work></rdf:RDF></metadata><defs
     id="defs8692"><inkscape:perspective
       sodipodi:type="inkscape:persp3d"
       inkscape:vp_x="0 : 526.18109 : 1"
       inkscape:vp_y="0 : 1000 : 0"
       inkscape:vp_z="744.09448 : 526.18109 : 1"
       inkscape:persp3d-origin="372.04724 : 350.78739 : 1"
       id="perspective8696" /><clipPath
       clipPathUnits="userSpaceOnUse"
       id="clipPath8888"><path
         d="M 0,0 L 268,0 L 268,184 L 0,184 L 0,0 z"
         id="path8890" /></clipPath><clipPath
       clipPathUnits="userSpaceOnUse"
       id="clipPath8914"><path
         d="M 0,1840 L 0,0 L 2680,0 L 2680,1840 L 0,1840 z M 921.199,171.199 L 945.801,64.3984 L 1033.4,84.1992 L 1009.4,191 L 1009.4,191 L 985.398,93.1992 L 921.199,171.199 z"
         clip-rule="evenodd"
         id="path8916" /></clipPath><clipPath
       clipPathUnits="userSpaceOnUse"
       id="clipPath8926"><path
         d="M 0,1840 L 0,0 L 2680,0 L 2680,1840 L 0,1840 z M 224,472.398 L 182,572.602 L 90.8008,534.199 L 132.801,434 L 132.801,434 L 143.602,536 L 224,472.398 z"
         clip-rule="evenodd"
         id="path8928" /></clipPath></defs><sodipodi:namedview
     inkscape:window-height="748"
     inkscape:window-width="1022"
     inkscape:pageshadow="2"
     inkscape:pageopacity="0.0"
     guidetolerance="10.0"
     gridtolerance="10.0"
     objecttolerance="10.0"
     borderopacity="1.0"
     bordercolor="#666666"
     pagecolor="#ffffff"
     id="base"
     showgrid="false"
     inkscape:zoom="3.7938633"
     inkscape:cx="93.389843"
     inkscape:cy="43.03809"
     inkscape:window-x="0"
     inkscape:window-y="0"
     inkscape:current-layer="g8702" /><g
     id="g8698"
     inkscape:groupmode="layer"
     inkscape:label="yu-sybilguard-tr"
     transform="matrix(1.25,0,0,-1.25,-86.519315,26.49025)"><g
       transform="translate(-54.992,-720)"
       id="g8702"><g
         id="g8878"
         transform="matrix(0.5,0,0,0.5,124.10003,650.09462)"><g
           id="g8880"><g
             id="g8882"><g
               id="g8884"><g
                 id="g8886"
                 clip-path="url(#clipPath8888)"><g
                   id="g8892"
                   transform="scale(0.1,0.1)"><path
                     d="M 1445,725 C 1445,707.109 1430.49,692.602 1412.6,692.602 C 1394.71,692.602 1380.2,707.109 1380.2,725 C 1380.2,742.891 1394.71,757.398 1412.6,757.398 C 1430.49,757.398 1445,742.891 1445,725"
                     style="fill:#000000;fill-opacity:1;fill-rule:evenodd;stroke:none"
                     id="path8894" /><path
                     d="M 1445,725 C 1445,707.109 1430.49,692.602 1412.6,692.602 C 1394.71,692.602 1380.2,707.109 1380.2,725 C 1380.2,742.891 1394.71,757.398 1412.6,757.398 C 1430.49,757.398 1445,742.891 1445,725 z"
                     style="fill:none;stroke:#000000;stroke-width:4.5;stroke-linecap:butt;stroke-linejoin:miter;stroke-miterlimit:10;stroke-dasharray:none;stroke-opacity:1"
                     id="path8896" /><path
                     d="M 937.395,410 C 937.395,392.109 922.887,377.602 904.996,377.602 C 887.105,377.602 872.598,392.109 872.598,410 C 872.598,427.891 887.105,442.398 904.996,442.398 C 922.887,442.398 937.395,427.891 937.395,410"
                     style="fill:#000000;fill-opacity:1;fill-rule:evenodd;stroke:none"
                     id="path8898" /><path
                     d="M 937.395,410 C 937.395,392.109 922.887,377.602 904.996,377.602 C 887.105,377.602 872.598,392.109 872.598,410 C 872.598,427.891 887.105,442.398 904.996,442.398 C 922.887,442.398 937.395,427.891 937.395,410 z"
                     style="fill:none;stroke:#000000;stroke-width:4.5;stroke-linecap:butt;stroke-linejoin:miter;stroke-miterlimit:10;stroke-dasharray:none;stroke-opacity:1"
                     id="path8900" /><path
                     d="M 904.996,1355 C 904.996,1337.11 890.488,1322.6 872.598,1322.6 C 854.707,1322.6 840.199,1337.11 840.199,1355 C 840.199,1372.89 854.707,1387.4 872.598,1387.4 C 890.488,1387.4 904.996,1372.89 904.996,1355"
                     style="fill:#000000;fill-opacity:1;fill-rule:evenodd;stroke:none"
                     id="path8902" /><path
                     d="M 904.996,1355 C 904.996,1337.11 890.488,1322.6 872.598,1322.6 C 854.707,1322.6 840.199,1337.11 840.199,1355 C 840.199,1372.89 854.707,1387.4 872.598,1387.4 C 890.488,1387.4 904.996,1372.89 904.996,1355 z"
                     style="fill:none;stroke:#000000;stroke-width:4.5;stroke-linecap:butt;stroke-linejoin:miter;stroke-miterlimit:10;stroke-dasharray:none;stroke-opacity:1"
                     id="path8904" /><path
                     d="M 1624.4,812 C 1624.4,366.309 1261.75,5 814.398,5 C 367.051,5 4.39844,366.309 4.39844,812 C 4.39844,1257.69 367.051,1619 814.398,1619 C 1261.75,1619 1624.4,1257.69 1624.4,812 z"
                     style="fill:none;stroke:#000000;stroke-width:4.5;stroke-linecap:butt;stroke-linejoin:miter;stroke-miterlimit:10;stroke-dasharray:none;stroke-opacity:1"
                     id="path8906" /><path
                     d="M 2569.4,793.398 C 2569.4,357.98 2357.71,5 2096.6,5 C 1835.48,5 1623.8,357.98 1623.8,793.398 C 1623.8,1228.82 1835.48,1581.8 2096.6,1581.8 C 2357.71,1581.8 2569.4,1228.82 2569.4,793.398 z"
                     style="fill:none;stroke:#000000;stroke-width:4.5;stroke-linecap:butt;stroke-linejoin:miter;stroke-miterlimit:10;stroke-dasharray:none;stroke-opacity:1"
                     id="path8908" /><g
                     id="g8910"><g
                       id="g8912"
                       clip-path="url(#clipPath8914)"><path
                         d="M 852.801,1343 L 851.602,1341.2 L 848,1338.2 L 842.602,1331.6 L 834.199,1322.6 L 823.398,1310 L 810.801,1295.6 L 796.398,1278.2 L 780.801,1259.6 L 765.801,1240.4 L 750.801,1221.2 L 736.398,1202.6 L 723.801,1184.6 L 712.398,1167.2 L 702.801,1151 L 694.398,1135.4 L 687.199,1120.4 L 681.801,1106 L 677.602,1092.2 L 675.199,1078.4 L 673.398,1064.6 L 672.801,1050.2 L 673.398,1038.2 L 674,1026.2 L 675.801,1013.6 L 678.199,1000.4 L 681.199,987.199 L 685.398,973.398 L 689.602,959 L 694.398,944 L 699.801,928.398 L 706.398,912.801 L 713,896.602 L 719.602,879.801 L 727.398,863 L 734.602,846.199 L 743,828.801 L 750.801,811.398 L 759.199,794 L 767.602,776.602 L 776,759.199 L 784.398,741.801 L 792.199,724.398 L 800,707 L 807.801,689.602 L 815.602,672.801 L 822.801,655.398 L 830.602,638 L 836.602,623 L 842.602,607.398 L 848.602,591.199 L 854,575 L 860,558.199 L 866,540.199 L 872,522.199 L 878,502.398 L 884,482 L 890.602,459.801 L 897.199,437 L 903.801,412.398 L 910.398,387.199 L 917.602,360.199 L 924.801,332.602 L 932.602,304.398 L 939.801,276.199 L 947,247.398 L 954.199,219.801 L 960.801,193.398 L 966.801,169.398 L 972.199,147.801 L 976.398,128.602 L 980.602,113.602 L 983.602,101.602 L 987.801,83"
                         style="fill:none;stroke:#000000;stroke-width:4.5;stroke-linecap:butt;stroke-linejoin:bevel;stroke-miterlimit:10;stroke-dasharray:none;stroke-opacity:1"
                         id="path8918" /></g></g><path
                     d="M 921.199,171.199 L 985.398,93.1992 L 1009.4,191"
                     style="fill:none;stroke:#000000;stroke-width:4.5;stroke-linecap:butt;stroke-linejoin:miter;stroke-miterlimit:10;stroke-dasharray:none;stroke-opacity:1"
                     id="path8920" /><g
                     id="g8922"><g
                       id="g8924"
                       clip-path="url(#clipPath8926)"><path
                         d="M 1400,725 L 1399.4,726.199 L 1397.6,728.602 L 1394.6,733.398 L 1390.4,739.398 L 1384.4,747.801 L 1377.2,757.398 L 1368.8,768.199 L 1359.2,779.602 L 1349,791.602 L 1337.6,803 L 1325.6,813.801 L 1311.8,824.602 L 1297.4,834.199 L 1280.6,842.602 L 1262.6,850.398 L 1242.2,856.398 L 1220,860 L 1203.2,861.199 L 1187,861.199 L 1171.4,860.602 L 1158.2,860 L 1146.2,858.801 L 1136,858.199 L 1127,857.602 L 1119.8,857 L 1113.8,857 L 1109,856.398 L 1100,856.398 L 1095.8,855.801 L 1091.6,854.602 L 1086.2,853.398 L 1080.8,851 L 1074.2,847.398 L 1066.4,842.602 L 1057.4,836 L 1046.6,827 L 1034.6,816.199 L 1022,803 L 1008.2,788 L 995,770 L 982.398,750.801 L 971.602,730.398 L 962,710.602 L 954.801,692 L 948.801,675.199 L 945.199,659.602 L 942.801,645.801 L 942.199,633.199 L 942.199,622.398 L 942.801,612.199 L 944.602,602.602 L 946.398,593.602 L 948.199,584.602 L 949.398,575 L 950.602,564.801 L 950.602,553.398 L 950,540.801 L 948.199,527 L 945.199,510.801 L 940.398,492.801 L 933.801,473.602 L 925.398,452.602 L 915.801,431 L 905,410 L 892.398,388.398 L 880.398,369.801 L 869.602,354.199 L 860.602,341 L 852.801,331.398 L 847.398,324.199 L 843.199,318.801 L 840.801,315.801 L 839,314 L 838.398,312.801 L 837.199,312.199 L 835.398,312.199 L 832.398,311.602 L 828.801,309.801 L 822.199,308 L 813.801,304.398 L 802.398,300.199 L 787.398,294.801 L 769.398,288.199 L 748.398,281.602 L 725,275 L 702.199,269.602 L 679.398,265.398 L 657.801,261.801 L 638,258.801 L 620.602,255.801 L 605.602,253.398 L 592.398,251 L 581,248.602 L 571.398,246.801 L 563,245 L 555.801,243.199 L 548.602,241.398 L 541.398,239.602 L 534.199,238.398 L 525.801,237.801 L 504.801,237.801 L 491,239 L 475.398,241.398 L 456.801,245 L 436.398,249.801 L 413.602,256.398 L 389.602,264.801 L 365,275 L 341,287 L 318.801,300.199 L 299,314.602 L 280.398,329 L 263.602,344 L 248.602,359.602 L 235.398,374.602 L 223.398,390.199 L 212,405.801 L 201.801,421.398 L 192.199,437 L 183.801,452 L 175.398,467 L 168.199,481.398 L 162.199,495.199 L 156.199,507.199 L 151.398,518 L 147.801,526.398 L 144.801,533.602 L 140,545"
                         style="fill:none;stroke:#000000;stroke-width:4.5;stroke-linecap:butt;stroke-linejoin:bevel;stroke-miterlimit:10;stroke-dasharray:none;stroke-opacity:1"
                         id="path8930" /></g></g><path
                     d="M 224,472.398 L 143.602,536 L 132.801,434"
                     style="fill:none;stroke:#000000;stroke-width:4.5;stroke-linecap:butt;stroke-linejoin:miter;stroke-miterlimit:10;stroke-dasharray:none;stroke-opacity:1"
                     id="path8932" /><g
                     id="g8934"
                     transform="scale(10,10)"><text
                       transform="matrix(1,0,0,-1,86,117.5)"
                       id="text8936"><tspan
                         style="font-size:18px;font-variant:normal;writing-mode:lr-tb;fill:#000000;fill-opacity:1;fill-rule:nonzero;stroke:none;font-family:Helvetica;-inkscape-font-specification:Helvetica-Narrow"
                         x="0 9.8459997 18.054001 22.968 26.243999 30.348 33.624001 41.832001"
                         y="0"
                         sodipodi:role="line"
                         id="tspan8938">Verifier</tspan></text>
<text
                       transform="matrix(1,0,0,-1,162.5,167)"
                       id="text8940"><tspan
                         style="font-size:19.99979973px;font-variant:normal;font-weight:normal;writing-mode:lr-tb;fill:#000000;fill-opacity:1;fill-rule:nonzero;stroke:none;font-family:Helvetica;-inkscape-font-specification:Helvetica"
                         x="0 13.339867 23.339767 34.459656 38.899612 43.339565 48.899509 60.019402 71.13929 82.259178 93.379066 -139.5 -125.06014 -113.94025 -102.82037 -91.700478 -81.700577 -76.140633 -70.580688 -59.4608 -48.340912 -37.221024 -26.101133"
                         y="0"
                         sodipodi:role="line"
                         id="tspan8942">Sybil nodesHonest nodes</tspan></text>
<text
                       transform="matrix(1,0,0,-1,104,54.5)"
                       id="text8944"><tspan
                         style="font-size:18px;font-variant:normal;writing-mode:lr-tb;fill:#000000;fill-opacity:1;fill-rule:nonzero;stroke:none;font-family:Helvetica;-inkscape-font-specification:Helvetica-Narrow"
                         x="0 9.8459997 18.054001 25.434 33.641998 41.849998 49.23"
                         y="0"
                         sodipodi:role="line"
                         id="tspan8946">Suspect</tspan></text>
</g></g></g></g></g></g></g></g></g></svg>